<svg viewBox="0 0 960 540" fill="none" stroke-linecap="square" stroke-miterlimit="10" xmlns="http://www.w3.org/2000/svg"><clipPath id="a"><path d="M0 0h960v540H0V0z"/></clipPath><g clip-path="url(#a)"><path d="M0 0h960v540H0z"/><path d="M966.421 288.15H686.047v166.227H966.42z"/><path fill="#001c3d" d="M704.453 315.304l-4.125-13.438h-.094q.219 4.094.219 5.47v7.968h-3.25v-17.14h4.953l4.047 13.109h.078l4.297-13.11h4.937v17.141h-3.375v-8.11q0-.578.016-1.328.016-.75.156-3.984h-.11l-4.421 13.422h-3.328zm17.941-6.578q0 1.953.64 2.953.642.984 2.08.984 1.437 0 2.062-.984.625-1 .625-2.953 0-1.938-.641-2.906-.625-.985-2.063-.985-1.437 0-2.078.969-.625.969-.625 2.922zm9.063 0q0 3.203-1.688 5.015-1.687 1.797-4.703 1.797-1.875 0-3.328-.828-1.437-.828-2.219-2.375-.765-1.547-.765-3.61 0-3.202 1.672-4.984 1.687-1.78 4.718-1.78 1.89 0 3.328.827 1.438.813 2.204 2.344.78 1.531.78 3.594zm7.11 6.812q-2.313 0-3.641-1.797-1.313-1.796-1.313-4.968 0-3.219 1.344-5.016 1.344-1.797 3.703-1.797 2.469 0 3.766 1.922h.125q-.282-1.469-.282-2.625v-4.187h3.594v18.234h-2.75l-.687-1.703h-.157q-1.218 1.937-3.703 1.937zm1.25-2.843q1.374 0 2-.797.64-.797.702-2.719v-.375q0-2.11-.656-3.016-.64-.922-2.11-.922-1.187 0-1.859 1.016-.656 1-.656 2.938 0 1.937.656 2.906.672.969 1.922.969zm19.062 2.609l-.485-1.672h-.187q-.563.906-1.625 1.406-1.047.5-2.406.5-2.297 0-3.47-1.234-1.171-1.234-1.171-3.563v-8.546h3.562v7.656q0 1.422.5 2.14.516.704 1.61.704 1.5 0 2.172-1 .672-1.016.672-3.329v-6.171h3.578v13.109h-2.75zm10.07 0h-3.578V297.07h3.578v18.234zm12.074 0l-.703-1.781h-.094q-.89 1.14-1.859 1.578-.953.437-2.484.437-1.891 0-2.97-1.078-1.077-1.078-1.077-3.078 0-2.078 1.453-3.062 1.453-1 4.406-1.11l2.266-.062v-.578q0-1.985-2.032-1.985-1.578 0-3.703.938l-1.172-2.407q2.25-1.187 5.016-1.187 2.625 0 4.031 1.156 1.407 1.14 1.407 3.485v8.734h-2.485zm-1.062-6.078l-1.375.047q-1.563.047-2.328.562-.766.516-.766 1.578 0 1.516 1.734 1.516 1.25 0 1.985-.719.75-.719.75-1.906v-1.078zm14.543-7.266q.734 0 1.203.094l-.266 3.36q-.437-.126-1.047-.126-1.718 0-2.672.891-.953.875-.953 2.453v6.672h-3.578v-13.11h2.703l.532 2.204h.171q.61-1.094 1.641-1.766 1.047-.672 2.266-.672z"/><path fill="#000" d="M707.078 353.075q0 2.265-1.64 3.531-1.641 1.266-4.454 1.266-3.047 0-4.687-.782v-1.921q1.047.437 2.28.703 1.25.25 2.47.25 2 0 3-.75 1.015-.766 1.015-2.11 0-.89-.36-1.453-.358-.578-1.202-1.047-.828-.484-2.547-1.093-2.39-.86-3.422-2.032-1.016-1.172-1.016-3.062 0-1.969 1.485-3.14 1.484-1.173 3.937-1.173 2.563 0 4.703.938l-.625 1.734q-2.125-.89-4.125-.89-1.578 0-2.468.687-.891.672-.891 1.875 0 .89.328 1.469.328.562 1.11 1.031.78.469 2.375 1.047 2.703.969 3.718 2.078 1.016 1.094 1.016 2.844zm19.578 4.562v-8.36q0-1.53-.656-2.296-.656-.766-2.047-.766-1.813 0-2.688 1.047-.859 1.032-.859 3.203v7.172h-1.937v-8.36q0-1.53-.657-2.296-.656-.766-2.062-.766-1.828 0-2.672 1.094-.844 1.094-.844 3.594v6.734h-1.953v-12.843h1.578l.328 1.75h.094q.547-.938 1.547-1.454 1-.53 2.25-.53 3 0 3.937 2.171h.094q.563-1 1.656-1.578 1.094-.594 2.485-.594 2.187 0 3.265 1.125 1.079 1.11 1.079 3.578v8.375h-1.938zm13.855 0l-.39-1.828h-.094q-.969 1.203-1.922 1.64-.953.423-2.375.423-1.922 0-3-.985-1.078-.984-1.078-2.797 0-3.89 6.219-4.078l2.172-.078v-.797q0-1.515-.657-2.234-.64-.719-2.062-.719-1.61 0-3.64.985l-.594-1.485q.953-.515 2.078-.812 1.125-.297 2.265-.297 2.297 0 3.407 1.031 1.109 1.016 1.109 3.266v8.765h-1.438zm-4.406-1.375q1.828 0 2.86-.984 1.03-1 1.03-2.797v-1.156l-1.937.078q-2.328.078-3.359.719-1.016.64-1.016 1.984 0 1.063.641 1.61.64.546 1.781.546zm11.801 1.375h-1.953v-18.234h1.953v18.234zm6.07 0h-1.953v-18.234h1.953v18.234zm10.008-16.484q0-1.75 1.953-1.75 1.938 0 1.938 1.75 0 .828-.485 1.297-.484.453-1.453.453-1.953 0-1.953-1.75zm3.735 16.484h-3.579v-13.11h3.579v13.11zm15.84 0h-3.579v-7.656q0-1.422-.5-2.125-.5-.703-1.61-.703-1.5 0-2.171 1-.656 1-.656 3.312v6.172h-3.578v-13.11h2.734l.484 1.688h.188q.61-.953 1.656-1.437 1.047-.484 2.375-.484 2.297 0 3.469 1.234 1.187 1.234 1.187 3.562v8.547zm7.835.235q-2.312 0-3.64-1.797-1.313-1.797-1.313-4.969 0-3.219 1.344-5.016 1.344-1.796 3.703-1.796 2.469 0 3.766 1.921h.125q-.282-1.468-.282-2.625v-4.187h3.594v18.234h-2.75l-.687-1.703h-.157q-1.218 1.938-3.703 1.938zm1.25-2.844q1.375 0 2-.797.64-.797.703-2.719v-.375q0-2.11-.656-3.015-.64-.922-2.11-.922-1.187 0-1.859 1.015-.656 1-.656 2.938 0 1.937.656 2.906.672.969 1.922.969zm15.203-8.203q-1.125 0-1.78.734-.641.719-.735 2.031h5.015q-.015-1.312-.687-2.03-.672-.735-1.813-.735zm.516 11.047q-3.172 0-4.953-1.75-1.781-1.75-1.781-4.938 0-3.297 1.64-5.094 1.657-1.796 4.563-1.796 2.781 0 4.328 1.578 1.547 1.578 1.547 4.375v1.734h-8.453q.062 1.516.906 2.375.844.86 2.36.86 1.187 0 2.234-.25 1.062-.25 2.203-.782v2.766q-.938.469-2 .687-1.063.235-2.594.235zm15.445 0q-2.312 0-3.625-1.672h-.187q.187 1.64.187 1.89v5.313h-3.578v-18.875h2.906l.5 1.703h.172q1.25-1.937 3.72-1.937 2.312 0 3.624 1.796 1.313 1.782 1.313 4.97 0 2.093-.625 3.64-.61 1.547-1.75 2.36-1.125.812-2.657.812zm-1.062-10.72q-1.328 0-1.938.813-.609.813-.625 2.688v.39q0 2.11.625 3.032.625.906 1.985.906 2.406 0 2.406-3.969 0-1.937-.594-2.89-.594-.97-1.86-.97zm14.469-.327q-1.125 0-1.782.734-.64.719-.734 2.031h5.016q-.016-1.312-.688-2.03-.672-.735-1.812-.735zm.515 11.047q-3.172 0-4.953-1.75-1.781-1.75-1.781-4.938 0-3.297 1.64-5.094 1.657-1.796 4.563-1.796 2.781 0 4.328 1.578 1.547 1.578 1.547 4.375v1.734h-8.453q.062 1.516.906 2.375.844.86 2.36.86 1.187 0 2.234-.25 1.062-.25 2.203-.782v2.766q-.938.469-2 .687-1.063.235-2.594.235zm20.336-.235h-3.578v-7.656q0-1.422-.5-2.125-.5-.703-1.61-.703-1.5 0-2.171 1-.656 1-.656 3.312v6.172h-3.579v-13.11h2.735l.484 1.688h.188q.609-.953 1.656-1.437 1.047-.484 2.375-.484 2.297 0 3.469 1.234 1.187 1.234 1.187 3.562v8.547zm7.836.235q-2.312 0-3.64-1.797-1.313-1.797-1.313-4.969 0-3.219 1.344-5.016 1.343-1.796 3.703-1.796 2.469 0 3.765 1.921h.125q-.28-1.468-.28-2.625v-4.187h3.593v18.234h-2.75l-.688-1.703h-.156q-1.219 1.938-3.703 1.938zm1.25-2.844q1.375 0 2-.797.64-.797.703-2.719v-.375q0-2.11-.656-3.015-.64-.922-2.11-.922-1.187 0-1.859 1.015-.656 1-.656 2.938 0 1.937.656 2.906.672.969 1.922.969zm18.11 2.61l-.704-1.782h-.093q-.891 1.14-1.86 1.578-.953.438-2.484.438-1.89 0-2.969-1.078-1.078-1.079-1.078-3.079 0-2.078 1.453-3.062 1.453-1 4.406-1.11l2.266-.062v-.578q0-1.984-2.031-1.984-1.578 0-3.703.937l-1.172-2.406q2.25-1.188 5.015-1.188 2.625 0 4.032 1.157 1.406 1.14 1.406 3.484v8.734h-2.485zm-1.063-6.079l-1.375.047q-1.563.047-2.328.563-.766.515-.766 1.578 0 1.515 1.735 1.515 1.25 0 1.984-.718.75-.72.75-1.907v-1.078zm19.324 6.078h-3.578v-7.656q0-1.422-.5-2.125-.5-.703-1.61-.703-1.5 0-2.171 1-.656 1-.656 3.312v6.172h-3.579v-13.11h2.735l.484 1.688h.188q.61-.953 1.656-1.437 1.047-.484 2.375-.484 2.297 0 3.469 1.234 1.187 1.234 1.187 3.562v8.547zm9.196-2.61q.937 0 2.25-.421v2.672q-1.329.594-3.282.594-2.14 0-3.125-1.078-.968-1.094-.968-3.266v-6.313h-1.72V345.7l1.97-1.188 1.03-2.765h2.298v2.78h3.656v2.688h-3.656v6.313q0 .766.422 1.14.421.36 1.125.36zm-199.235 31.277v-8.36q0-1.53-.656-2.296-.656-.766-2.047-.766-1.812 0-2.687 1.047-.86 1.031-.86 3.203v7.172h-1.937v-8.36q0-1.53-.657-2.296-.656-.766-2.062-.766-1.828 0-2.672 1.094-.844 1.094-.844 3.594v6.734h-1.953V373.46h1.578l.328 1.75h.094q.547-.937 1.547-1.453 1-.531 2.25-.531 3 0 3.938 2.172h.093q.563-1 1.657-1.578 1.093-.594 2.484-.594 2.187 0 3.266 1.125 1.078 1.11 1.078 3.578v8.375h-1.938zm17.043-6.438q0 3.141-1.594 4.907-1.578 1.765-4.359 1.765-1.734 0-3.078-.812-1.328-.813-2.063-2.313-.718-1.515-.718-3.547 0-3.14 1.562-4.89 1.578-1.75 4.375-1.75 2.688 0 4.281 1.797 1.594 1.781 1.594 4.843zm-9.797 0q0 2.47.985 3.766.984 1.281 2.906 1.281 1.906 0 2.89-1.28 1-1.298 1-3.767 0-2.453-1-3.718-.984-1.266-2.921-1.266-1.907 0-2.891 1.25-.969 1.25-.969 3.734zm21.95 4.72h-.11q-1.344 1.952-4.031 1.952-2.516 0-3.922-1.718-1.406-1.735-1.406-4.907 0-3.172 1.406-4.922 1.406-1.765 3.922-1.765 2.61 0 4 1.89h.156l-.078-.921-.047-.907v-5.218h1.938v18.234h-1.579l-.25-1.719zm-3.891.327q1.984 0 2.875-1.078.906-1.094.906-3.515v-.407q0-2.734-.906-3.89-.906-1.172-2.906-1.172-1.704 0-2.625 1.328-.907 1.328-.907 3.766 0 2.453.907 3.718.906 1.25 2.656 1.25zm11.676-11.453v8.328q0 1.578.718 2.36.72.765 2.235.765 2.015 0 2.937-1.093.938-1.11.938-3.61v-6.75h1.953v12.844h-1.61l-.28-1.719h-.11q-.594.938-1.656 1.453-1.063.5-2.422.5-2.344 0-3.516-1.109-1.156-1.125-1.156-3.563v-8.406h1.969zm14.855 12.844h-1.953V368.07h1.953v18.234zm9.54.234q-2.845 0-4.5-1.734-1.641-1.734-1.641-4.813 0-3.109 1.53-4.937 1.532-1.828 4.11-1.828 2.422 0 3.828 1.594 1.407 1.578 1.407 4.187v1.219h-8.86q.063 2.265 1.14 3.437 1.095 1.172 3.063 1.172 2.078 0 4.094-.86v1.735q-1.031.438-1.953.625-.906.203-2.219.203zm-.516-11.687q-1.547 0-2.47 1.015-.921 1-1.093 2.782h6.719q0-1.844-.828-2.813-.813-.984-2.328-.984zm16.84 7.953q0 1.781-1.344 2.766-1.329.968-3.735.968-2.562 0-3.984-.812v-1.797q.922.469 1.984.734 1.063.266 2.047.266 1.516 0 2.328-.484.828-.485.828-1.485 0-.75-.656-1.281-.64-.531-2.531-1.266-1.781-.656-2.547-1.156-.75-.5-1.125-1.125-.36-.64-.36-1.516 0-1.578 1.266-2.484 1.281-.906 3.516-.906 2.062 0 4.047.844l-.688 1.578q-1.937-.797-3.5-.797-1.39 0-2.094.437-.703.438-.703 1.188 0 .515.266.89.266.36.844.688.593.328 2.25.953 2.297.828 3.093 1.672.797.844.797 2.125zm17.308 3.5l-.39-1.828h-.094q-.97 1.203-1.922 1.64-.953.422-2.375.422-1.922 0-3-.984t-1.078-2.797q0-3.89 6.218-4.078l2.172-.078v-.797q0-1.516-.656-2.234-.64-.72-2.063-.72-1.609 0-3.64.985l-.594-1.484q.953-.516 2.078-.813 1.125-.297 2.266-.297 2.297 0 3.406 1.032 1.11 1.015 1.11 3.265v8.766h-1.438zm-4.406-1.375q1.828 0 2.86-.984 1.03-1 1.03-2.797v-1.157l-1.937.079q-2.328.078-3.36.718-1.015.641-1.015 1.985 0 1.062.64 1.61.641.546 1.782.546zm18.129-2.125q0 1.781-1.344 2.766-1.328.968-3.735.968-2.562 0-3.984-.812v-1.797q.922.469 1.984.734 1.063.266 2.047.266 1.516 0 2.328-.484.829-.485.829-1.485 0-.75-.657-1.281-.64-.531-2.53-1.266-1.782-.656-2.548-1.156-.75-.5-1.125-1.125-.36-.64-.36-1.516 0-1.578 1.266-2.484 1.282-.906 3.516-.906 2.063 0 4.047.844l-.688 1.578q-1.937-.797-3.5-.797-1.39 0-2.093.437-.703.438-.703 1.188 0 .515.265.89.266.36.844.688.594.328 2.25.953 2.297.828 3.094 1.672.797.844.797 2.125zm11.449 0q0 1.781-1.344 2.766-1.328.968-3.734.968-2.563 0-3.985-.812v-1.797q.922.469 1.985.734 1.062.266 2.047.266 1.515 0 2.328-.484.828-.485.828-1.485 0-.75-.656-1.281-.641-.531-2.532-1.266-1.78-.656-2.547-1.156-.75-.5-1.125-1.125-.359-.64-.359-1.516 0-1.578 1.266-2.484 1.28-.906 3.515-.906 2.063 0 4.047.844l-.687 1.578q-1.938-.797-3.5-.797-1.39 0-2.094.437-.703.438-.703 1.188 0 .515.265.89.266.36.844.688.594.328 2.25.953 2.297.828 3.094 1.672.797.844.797 2.125zm8.59 3.734q-2.844 0-4.5-1.734-1.641-1.734-1.641-4.813 0-3.109 1.531-4.937 1.532-1.828 4.11-1.828 2.422 0 3.828 1.594 1.406 1.578 1.406 4.187v1.219h-8.86q.063 2.265 1.141 3.437 1.094 1.172 3.063 1.172 2.078 0 4.094-.86v1.735q-1.032.438-1.954.625-.906.203-2.218.203zm-.516-11.687q-1.547 0-2.469 1.015-.922 1-1.093 2.782h6.718q0-1.844-.828-2.813-.812-.984-2.328-.984zm24.934 11.453v-8.36q0-1.53-.657-2.296-.656-.766-2.046-.766-1.813 0-2.688 1.047-.86 1.031-.86 3.203v7.172h-1.937v-8.36q0-1.53-.656-2.296-.656-.766-2.063-.766-1.828 0-2.671 1.094-.844 1.094-.844 3.594v6.734h-1.953V373.46h1.578l.328 1.75h.094q.547-.937 1.547-1.453 1-.531 2.25-.531 3 0 3.937 2.172h.094q.562-1 1.656-1.578 1.094-.594 2.484-.594 2.188 0 3.266 1.125 1.078 1.11 1.078 3.578v8.375h-1.937zm11.933-13.063q2.531 0 3.922 1.735 1.406 1.734 1.406 4.89 0 3.172-1.422 4.922-1.406 1.75-3.906 1.75-1.265 0-2.297-.453-1.03-.469-1.734-1.437h-.14l-.423 1.656h-1.39V368.07h1.953v4.421q0 1.5-.094 2.672h.094q1.36-1.922 4.031-1.922zm-.281 1.641q-2 0-2.875 1.14-.875 1.141-.875 3.844 0 2.704.89 3.875.907 1.172 2.907 1.172 1.781 0 2.656-1.312.89-1.313.89-3.75 0-2.516-.89-3.735-.875-1.234-2.703-1.234zm10.957 11.422h-1.953V368.07h1.953v18.234zm9.54.234q-2.845 0-4.5-1.734-1.642-1.734-1.642-4.813 0-3.109 1.532-4.937 1.53-1.828 4.11-1.828 2.42 0 3.827 1.594 1.406 1.578 1.406 4.187v1.219h-8.859q.063 2.265 1.14 3.437 1.094 1.172 3.063 1.172 2.078 0 4.094-.86v1.735q-1.031.438-1.953.625-.906.203-2.219.203zm-.517-11.687q-1.546 0-2.468 1.015-.922 1-1.094 2.782h6.719q0-1.844-.828-2.813-.813-.984-2.329-.984zm17.309 9.734h-.11q-1.343 1.953-4.03 1.953-2.516 0-3.922-1.718-1.407-1.735-1.407-4.907 0-3.172 1.407-4.922 1.406-1.765 3.921-1.765 2.61 0 4 1.89h.157l-.078-.921-.047-.907v-5.218h1.937v18.234h-1.578l-.25-1.719zm-3.89.328q1.984 0 2.874-1.078.907-1.094.907-3.515v-.407q0-2.734-.907-3.89-.906-1.172-2.906-1.172-1.703 0-2.625 1.328-.906 1.328-.906 3.766 0 2.453.906 3.718.906 1.25 2.656 1.25zm-212.661 30.391h-1.953V402.46h1.953v12.844zm-2.11-16.328q0-.672.329-.969.328-.312.813-.312.468 0 .812.312.344.313.344.969 0 .656-.344.984-.344.313-.812.313-.485 0-.813-.313-.328-.328-.328-.984zm15.024 16.328v-8.313q0-1.562-.718-2.328-.72-.78-2.235-.78-2.015 0-2.953 1.093-.937 1.078-.937 3.594v6.734h-1.954V402.46h1.579l.328 1.75h.093q.594-.937 1.672-1.453 1.078-.531 2.407-.531 2.312 0 3.484 1.125 1.172 1.11 1.172 3.578v8.375h-1.938zm10.09-1.375q.516 0 .985-.078.484-.078.765-.156v1.484q-.312.156-.937.25-.61.11-1.094.11-3.734 0-3.734-3.923v-7.64h-1.844v-.938l1.844-.812.828-2.75h1.125v2.984h3.718v1.516h-3.718v7.547q0 1.172.547 1.797.546.609 1.515.609zm15.41-5.063q0 3.141-1.593 4.907-1.579 1.765-4.36 1.765-1.734 0-3.078-.812-1.328-.813-2.062-2.313-.72-1.515-.72-3.547 0-3.14 1.563-4.89 1.578-1.75 4.375-1.75 2.688 0 4.282 1.797 1.593 1.781 1.593 4.843zm-9.797 0q0 2.47.985 3.766.984 1.281 2.906 1.281 1.906 0 2.89-1.28 1-1.298 1-3.767 0-2.453-1-3.718-.984-1.266-2.921-1.266-1.906 0-2.89 1.25-.97 1.25-.97 3.734zm26.45 6.672q-2.313 0-3.625-1.672h-.188q.188 1.641.188 1.891v5.313h-3.578v-18.875h2.906l.5 1.703h.172q1.25-1.938 3.718-1.938 2.313 0 3.625 1.797 1.313 1.781 1.313 4.969 0 2.094-.625 3.64-.61 1.547-1.75 2.36-1.125.812-2.656.812zm-1.063-10.718q-1.328 0-1.937.812-.61.813-.625 2.688v.39q0 2.11.625 3.031.625.907 1.984.907 2.406 0 2.406-3.969 0-1.938-.593-2.89-.594-.97-1.86-.97zm8.89-6q0-1.75 1.954-1.75 1.937 0 1.937 1.75 0 .828-.484 1.296-.484.454-1.453.454-1.953 0-1.953-1.75zm3.735 16.484h-3.578v-13.11h3.578v13.11zm10.95.234q-2.313 0-3.626-1.672h-.187q.187 1.641.187 1.891v5.313h-3.578v-18.875h2.907l.5 1.703h.171q1.25-1.938 3.72-1.938 2.312 0 3.624 1.797 1.313 1.781 1.313 4.969 0 2.094-.625 3.64-.61 1.547-1.75 2.36-1.125.812-2.657.812zm-1.063-10.718q-1.328 0-1.938.812-.609.813-.625 2.688v.39q0 2.11.625 3.031.625.907 1.985.907 2.406 0 2.406-3.969 0-1.938-.594-2.89-.593-.97-1.86-.97zm14.469-.329q-1.125 0-1.782.735-.64.719-.734 2.031h5.016q-.016-1.312-.688-2.031-.672-.735-1.812-.735zm.515 11.047q-3.172 0-4.953-1.75-1.781-1.75-1.781-4.937 0-3.297 1.64-5.094 1.657-1.797 4.563-1.797 2.781 0 4.328 1.578 1.547 1.578 1.547 4.375v1.735h-8.453q.062 1.515.906 2.375.844.86 2.36.86 1.187 0 2.234-.25 1.062-.25 2.203-.782v2.765q-.937.47-2 .688-1.062.234-2.594.234zm11.82-.234h-3.578V397.07h3.579v18.234zm3.59-16.484q0-1.75 1.954-1.75 1.937 0 1.937 1.75 0 .828-.484 1.296-.485.454-1.453.454-1.954 0-1.954-1.75zm3.735 16.484h-3.578v-13.11h3.578v13.11zm15.84 0h-3.578v-7.656q0-1.422-.5-2.125-.5-.703-1.61-.703-1.5 0-2.172 1-.656 1-.656 3.312v6.172h-3.578v-13.11h2.734l.485 1.688h.187q.61-.953 1.656-1.437 1.047-.485 2.375-.485 2.297 0 3.47 1.235 1.187 1.234 1.187 3.562v8.547zm9.101-10.813q-1.125 0-1.781.735-.64.719-.734 2.031h5.015q-.015-1.312-.687-2.031-.672-.735-1.813-.735zm.516 11.047q-3.172 0-4.953-1.75-1.782-1.75-1.782-4.937 0-3.297 1.641-5.094 1.656-1.797 4.563-1.797 2.78 0 4.328 1.578 1.547 1.578 1.547 4.375v1.735h-8.454q.063 1.515.907 2.375.843.86 2.36.86 1.187 0 2.233-.25 1.063-.25 2.204-.782v2.765q-.938.47-2 .688-1.063.234-2.594.234zm17.383-4.125q0 2.016-1.407 3.078-1.39 1.047-4.187 1.047-1.422 0-2.438-.203-1-.187-1.875-.562v-2.953q.985.468 2.235.796 1.25.313 2.203.313 1.937 0 1.937-1.125 0-.422-.265-.688-.25-.265-.89-.593-.626-.344-1.673-.782-1.515-.64-2.234-1.171-.703-.547-1.031-1.235-.313-.703-.313-1.719 0-1.75 1.344-2.703 1.36-.953 3.844-.953 2.375 0 4.609 1.031l-1.078 2.579q-.984-.422-1.844-.688-.844-.281-1.734-.281-1.594 0-1.594.86 0 .484.516.843.515.344 2.234 1.031 1.531.625 2.25 1.172.719.531 1.047 1.234.344.704.344 1.672zm15.007-7.437h-3.28v11.328h-1.938v-11.328h-2.297v-.89l2.297-.704v-.703q0-4.734 4.14-4.734 1.016 0 2.39.406l-.515 1.562q-1.125-.375-1.922-.375-1.093 0-1.625.735-.53.734-.53 2.36v.827h3.28v1.516zm13.43 4.89q0 3.141-1.594 4.907-1.578 1.765-4.359 1.765-1.734 0-3.078-.812-1.328-.813-2.063-2.313-.718-1.515-.718-3.547 0-3.14 1.562-4.89 1.578-1.75 4.375-1.75 2.688 0 4.281 1.797 1.594 1.781 1.594 4.843zm-9.797 0q0 2.47.985 3.766.984 1.281 2.906 1.281 1.906 0 2.89-1.28 1-1.298 1-3.767 0-2.453-1-3.718-.984-1.266-2.921-1.266-1.907 0-2.891 1.25-.969 1.25-.969 3.734zm19.059-6.64q.86 0 1.531.14l-.266 1.797q-.796-.172-1.406-.172-1.562 0-2.672 1.266-1.093 1.266-1.093 3.156v6.891h-1.954V402.46h1.61l.219 2.375h.093q.72-1.25 1.72-1.922 1.015-.687 2.218-.687zm15.594 13.312q-2.844 0-4.5-1.734-1.641-1.734-1.641-4.813 0-3.109 1.531-4.937 1.531-1.828 4.11-1.828 2.421 0 3.828 1.594 1.406 1.578 1.406 4.187v1.219h-8.86q.063 2.265 1.141 3.437 1.094 1.172 3.063 1.172 2.078 0 4.093-.86v1.735q-1.03.438-1.953.625-.906.203-2.218.203zm-.516-11.687q-1.547 0-2.469 1.015-.922 1-1.094 2.782h6.72q0-1.844-.829-2.813-.812-.984-2.328-.984zm16.465 11.453l-.39-1.828h-.095q-.968 1.203-1.921 1.64-.954.422-2.375.422-1.922 0-3-.984-1.079-.984-1.079-2.797 0-3.89 6.22-4.078l2.171-.078v-.797q0-1.516-.656-2.234-.64-.72-2.063-.72-1.61 0-3.64.985l-.594-1.484q.953-.516 2.078-.813 1.125-.297 2.266-.297 2.297 0 3.406 1.032 1.11 1.015 1.11 3.265v8.766h-1.438zm-4.406-1.375q1.828 0 2.859-.984 1.031-1 1.031-2.797v-1.157l-1.937.079q-2.328.078-3.36.718-1.015.641-1.015 1.985 0 1.062.64 1.61.64.546 1.782.546zm18.128-2.125q0 1.781-1.343 2.766-1.328.968-3.735.968-2.562 0-3.984-.812v-1.797q.922.469 1.984.734 1.063.266 2.047.266 1.516 0 2.328-.484.828-.485.828-1.485 0-.75-.656-1.281-.64-.531-2.531-1.266-1.781-.656-2.547-1.156-.75-.5-1.125-1.125-.36-.64-.36-1.516 0-1.578 1.266-2.484 1.282-.906 3.516-.906 2.062 0 4.047.844l-.688 1.578q-1.937-.797-3.5-.797-1.39 0-2.093.437-.704.438-.704 1.188 0 .515.266.89.266.36.844.688.594.328 2.25.953 2.297.828 3.094 1.672.796.844.796 2.125zm1.137-9.344h2.078l2.813 7.328q.922 2.5 1.156 3.61h.094q.14-.594.625-2.032.5-1.453 3.187-8.906h2.094l-5.531 14.625q-.813 2.172-1.906 3.078-1.094.907-2.688.907-.89 0-1.766-.204v-1.546q.641.14 1.438.14 2.016 0 2.86-2.25l.718-1.828-5.172-12.922zM705.86 442.585h-.11q-1.344 1.953-4.031 1.953-2.516 0-3.922-1.718-1.407-1.735-1.407-4.907 0-3.172 1.407-4.922 1.406-1.765 3.922-1.765 2.609 0 4 1.89h.156l-.078-.921-.047-.907v-5.218h1.937v18.234h-1.578l-.25-1.719zm-3.891.328q1.984 0 2.875-1.078.906-1.094.906-3.515v-.407q0-2.734-.906-3.89-.907-1.172-2.907-1.172-1.703 0-2.625 1.328-.906 1.328-.906 3.766 0 2.453.906 3.718.907 1.25 2.657 1.25zm15.269 1.625q-2.844 0-4.5-1.734-1.64-1.734-1.64-4.813 0-3.109 1.53-4.937 1.532-1.828 4.11-1.828 2.422 0 3.828 1.594 1.406 1.578 1.406 4.187v1.219h-8.859q.063 2.265 1.14 3.437 1.094 1.172 3.063 1.172 2.078 0 4.094-.86v1.735q-1.031.438-1.953.625-.906.203-2.219.203zm-.516-11.687q-1.546 0-2.468 1.015-.922 1-1.094 2.782h6.719q0-1.844-.828-2.813-.813-.984-2.329-.984zm14.543 11.687q-1.265 0-2.296-.453-1.032-.469-1.735-1.437h-.14q.14 1.125.14 2.14v5.282h-1.953v-18.61h1.578l.281 1.75h.094q.75-1.047 1.735-1.515 1-.47 2.296-.47 2.547 0 3.938 1.75 1.39 1.735 1.39 4.891 0 3.172-1.421 4.922-1.407 1.75-3.907 1.75zm-.28-11.656q-1.97 0-2.86 1.094-.875 1.078-.89 3.453v.437q0 2.704.89 3.875.906 1.172 2.906 1.172 1.656 0 2.594-1.343.953-1.36.953-3.72 0-2.405-.953-3.687-.938-1.28-2.64-1.28zm10.956 11.422h-1.953V426.07h1.953v18.234zm15.211-6.438q0 3.141-1.594 4.907-1.578 1.765-4.359 1.765-1.734 0-3.078-.812-1.328-.813-2.063-2.313-.718-1.515-.718-3.547 0-3.14 1.562-4.89 1.578-1.75 4.375-1.75 2.688 0 4.281 1.797 1.594 1.781 1.594 4.843zm-9.797 0q0 2.47.985 3.766.984 1.281 2.906 1.281 1.906 0 2.89-1.28 1-1.298 1-3.767 0-2.453-1-3.718-.984-1.266-2.921-1.266-1.907 0-2.891 1.25-.969 1.25-.969 3.734zm11.168-6.406h2.078l2.813 7.328q.922 2.5 1.156 3.61h.094q.14-.594.625-2.032.5-1.453 3.187-8.906h2.094l-5.531 14.625q-.813 2.172-1.906 3.078-1.094.907-2.688.907-.89 0-1.766-.204v-1.546q.641.14 1.438.14 2.016 0 2.86-2.25l.718-1.828-5.172-12.922zm30.5 12.844v-8.36q0-1.53-.656-2.296-.656-.766-2.047-.766-1.812 0-2.687 1.047-.86 1.031-.86 3.203v7.172h-1.937v-8.36q0-1.53-.657-2.296-.656-.766-2.062-.766-1.828 0-2.672 1.094-.844 1.094-.844 3.594v6.734h-1.953V431.46h1.578l.328 1.75h.094q.547-.937 1.547-1.453 1-.531 2.25-.531 3 0 3.938 2.172h.093q.563-1 1.657-1.578 1.093-.594 2.484-.594 2.187 0 3.266 1.125 1.078 1.11 1.078 3.578v8.375h-1.938zm11.371.234q-2.843 0-4.5-1.734-1.64-1.734-1.64-4.813 0-3.109 1.53-4.937 1.532-1.828 4.11-1.828 2.422 0 3.828 1.594 1.407 1.578 1.407 4.187v1.219h-8.86q.063 2.265 1.14 3.437 1.095 1.172 3.063 1.172 2.079 0 4.094-.86v1.735q-1.031.438-1.953.625-.906.203-2.219.203zm-.515-11.687q-1.547 0-2.47 1.015-.921 1-1.093 2.782h6.719q0-1.844-.828-2.813-.813-.984-2.328-.984zm17.355 11.453v-8.313q0-1.562-.719-2.328-.718-.78-2.234-.78-2.016 0-2.953 1.093-.938 1.078-.938 3.594v6.734h-1.953V431.46h1.578l.329 1.75h.093q.594-.937 1.672-1.453 1.078-.531 2.406-.531 2.313 0 3.485 1.125 1.172 1.11 1.172 3.578v8.375h-1.938zm10.09-1.375q.516 0 .984-.078.485-.078.766-.156v1.484q-.313.156-.938.25-.609.11-1.093.11-3.735 0-3.735-3.923v-7.64h-1.843v-.938l1.843-.812.828-2.75h1.125v2.984h3.72v1.516h-3.72v7.547q0 1.172.547 1.797.547.609 1.516.609zm4.035.125q0-.781.36-1.188.359-.406 1.03-.406.673 0 1.048.406.39.407.39 1.188 0 .766-.39 1.187-.391.407-1.047.407-.61 0-1-.375t-.39-1.219z"/><path d="M557.805 303.962h111.616"/><path stroke="#c2c2c2" stroke-linejoin="round" stroke-linecap="butt" d="M557.805 303.962h111.616"/><path fill="#0e65f0" d="M673.364 303.276c0-8.691-6.596-15.737-14.731-15.737-3.907 0-7.654 1.658-10.416 4.61-2.763 2.95-4.315 6.953-4.315 11.127 0 8.691 6.595 15.737 14.73 15.737 8.136 0 14.732-7.046 14.732-15.737z" fill-rule="evenodd"/><path d="M676.99 277.95h-36.716v49.663h36.716zm-873.148 43.766h308.145v166.227h-308.145z"/><path fill="#001c3d" d="M16.686 408.604q0 2.328-1.672 3.672-1.656 1.328-4.64 1.328-2.735 0-4.844-1.032v-3.375q1.734.766 2.922 1.094 1.203.313 2.203.313 1.203 0 1.828-.453.64-.47.64-1.36 0-.515-.28-.906-.282-.39-.829-.75-.53-.36-2.218-1.156-1.563-.75-2.36-1.422-.78-.688-1.25-1.578-.468-.907-.468-2.11 0-2.28 1.546-3.578 1.547-1.297 4.266-1.297 1.328 0 2.531.313 1.22.312 2.547.89l-1.172 2.829q-1.375-.563-2.265-.782-.89-.234-1.766-.234-1.031 0-1.578.484-.547.485-.547 1.25 0 .485.219.844.219.36.703.688.484.328 2.312 1.203 2.391 1.14 3.282 2.297.89 1.156.89 2.828zm8.157 5q-6.125 0-6.125-6.719 0-3.344 1.656-5.094 1.672-1.765 4.781-1.765 2.266 0 4.078.89l-1.062 2.766q-.844-.344-1.578-.563-.72-.218-1.438-.218-2.797 0-2.797 3.968 0 3.844 2.797 3.844 1.031 0 1.906-.281t1.766-.86v3.063q-.875.547-1.766.75-.875.219-2.218.219zm15.34-.235l-.704-1.78h-.093q-.891 1.14-1.86 1.577-.953.438-2.484.438-1.89 0-2.969-1.078-1.078-1.079-1.078-3.079 0-2.078 1.453-3.062 1.453-1 4.406-1.11l2.266-.062v-.578q0-1.984-2.031-1.984-1.578 0-3.703.937l-1.172-2.406q2.25-1.188 5.015-1.188 2.625 0 4.032 1.157 1.406 1.14 1.406 3.484v8.734h-2.485zm-1.063-6.078l-1.375.047q-1.563.047-2.328.563-.766.515-.766 1.578 0 1.515 1.735 1.515 1.25 0 1.984-.718.75-.72.75-1.907v-1.078zm10.809 6.078H46.35v-18.234h3.579v18.234zm12.074 0l-.703-1.78h-.094q-.89 1.14-1.86 1.577-.953.438-2.484.438-1.89 0-2.969-1.078-1.078-1.079-1.078-3.079 0-2.078 1.453-3.062 1.454-1 4.407-1.11l2.265-.062v-.578q0-1.984-2.031-1.984-1.578 0-3.703.937l-1.172-2.406q2.25-1.188 5.016-1.188 2.625 0 4.03 1.157 1.407 1.14 1.407 3.484v8.734h-2.484zm-1.063-6.078l-1.375.047q-1.562.047-2.328.563-.765.515-.765 1.578 0 1.515 1.734 1.515 1.25 0 1.984-.718.75-.72.75-1.907v-1.078zm14.528-7.265q2.312 0 3.625 1.812 1.312 1.797 1.312 4.953 0 3.25-1.36 5.031-1.343 1.782-3.671 1.782-2.313 0-3.625-1.672h-.25l-.594 1.437h-2.734v-18.234h3.578v4.234q0 .813-.14 2.594h.14q1.25-1.937 3.719-1.937zm-1.157 2.859q-1.328 0-1.937.812-.61.813-.625 2.688v.39q0 2.11.625 3.032.625.906 1.984.906 1.11 0 1.75-1.016.656-1.015.656-2.953 0-1.937-.656-2.89-.656-.969-1.797-.969zm12.625 10.484h-3.578v-18.234h3.578v18.234zm9.168-10.812q-1.125 0-1.78.734-.642.719-.735 2.031h5.015q-.015-1.312-.687-2.03-.672-.735-1.813-.735zm.516 11.047q-3.172 0-4.953-1.75-1.781-1.75-1.781-4.938 0-3.297 1.64-5.094 1.656-1.796 4.563-1.796 2.78 0 4.328 1.578 1.547 1.578 1.547 4.375v1.734H93.51q.062 1.516.906 2.375.844.86 2.36.86 1.187 0 2.234-.25 1.062-.25 2.203-.782v2.766q-.938.469-2 .687-1.063.235-2.594.235z"/><path d="M296.31 406.012H128.619"/><path stroke="#c2c2c2" stroke-linejoin="round" stroke-linecap="butt" d="M296.31 406.012H128.619"/><path fill="#307bf3" d="M124.693 405.325c0-8.69 6.595-15.737 14.73-15.737 3.908 0 7.655 1.658 10.417 4.61 2.763 2.95 4.315 6.954 4.315 11.127 0 8.692-6.595 15.737-14.731 15.737s-14.73-7.045-14.73-15.737z" fill-rule="evenodd"/><path d="M121.067 380h36.716v49.662h-36.716zM934.422 46.14h-280.33v166.227h280.33z"/><path fill="#001c3d" d="M675.357 33.028q0 2.328-1.672 3.672-1.656 1.328-4.64 1.328-2.735 0-4.844-1.031v-3.375q1.734.766 2.922 1.094 1.203.312 2.203.312 1.203 0 1.828-.453.64-.469.64-1.36 0-.515-.28-.906-.282-.39-.829-.75-.531-.359-2.219-1.156-1.562-.75-2.36-1.422-.78-.687-1.25-1.578-.468-.906-.468-2.11 0-2.28 1.547-3.577 1.547-1.297 4.266-1.297 1.328 0 2.53.312 1.22.313 2.548.89l-1.172 2.829q-1.375-.562-2.266-.781-.89-.235-1.765-.235-1.032 0-1.578.485-.547.484-.547 1.25 0 .484.218.844.22.359.704.687.484.328 2.312 1.203 2.39 1.14 3.281 2.297.89 1.156.89 2.828zm12.11 4.766l-.485-1.672h-.188q-.562.906-1.625 1.406-1.046.5-2.406.5-2.297 0-3.469-1.234-1.171-1.235-1.171-3.563v-8.547h3.562v7.657q0 1.422.5 2.14.516.703 1.61.703 1.5 0 2.171-1 .672-1.015.672-3.328v-6.172h3.578v13.11h-2.75zm15.632-3.89q0 2.015-1.406 3.077-1.39 1.047-4.188 1.047-1.422 0-2.437-.203-1-.187-1.875-.562v-2.954q.984.47 2.234.797 1.25.313 2.203.313 1.938 0 1.938-1.125 0-.422-.266-.688-.25-.265-.89-.593-.625-.344-1.672-.782-1.516-.64-2.235-1.172-.703-.546-1.03-1.234-.313-.703-.313-1.719 0-1.75 1.343-2.703 1.36-.953 3.844-.953 2.375 0 4.61 1.031l-1.079 2.578q-.984-.421-1.843-.687-.844-.281-1.735-.281-1.594 0-1.594.859 0 .484.516.844.516.344 2.234 1.031 1.532.625 2.25 1.172.72.531 1.047 1.234.344.703.344 1.672zm8.305 1.28q.937 0 2.25-.421v2.671q-1.328.594-3.281.594-2.141 0-3.125-1.078-.97-1.094-.97-3.266v-6.312h-1.718v-1.516l1.969-1.187 1.031-2.766h2.297v2.781h3.656v2.688h-3.656v6.312q0 .766.422 1.141.422.36 1.125.36zm13.23 2.61l-.703-1.781h-.094q-.89 1.14-1.859 1.578-.953.437-2.484.437-1.891 0-2.97-1.078-1.077-1.078-1.077-3.078 0-2.078 1.453-3.063 1.453-1 4.406-1.109l2.266-.062v-.579q0-1.984-2.032-1.984-1.578 0-3.703.938l-1.172-2.407q2.25-1.187 5.016-1.187 2.625 0 4.031 1.156 1.407 1.14 1.407 3.484v8.735h-2.485zm-1.062-6.078l-1.375.047q-1.563.046-2.328.562-.766.516-.766 1.578 0 1.516 1.734 1.516 1.25 0 1.985-.719.75-.719.75-1.906v-1.078zm7.074-10.407q0-1.75 1.953-1.75 1.938 0 1.938 1.75 0 .829-.485 1.297-.484.453-1.453.453-1.953 0-1.953-1.75zm3.734 16.485h-3.578v-13.11h3.578v13.11zm15.84 0h-3.578v-7.656q0-1.422-.5-2.125-.5-.704-1.61-.704-1.5 0-2.171 1-.656 1-.656 3.313v6.172h-3.579v-13.11h2.735l.484 1.688h.188q.61-.953 1.656-1.438 1.047-.484 2.375-.484 2.297 0 3.469 1.234 1.187 1.235 1.187 3.563v8.547zm12.008 0l-.703-1.781h-.094q-.89 1.14-1.86 1.578-.952.437-2.484.437-1.89 0-2.968-1.078-1.079-1.078-1.079-3.078 0-2.078 1.454-3.063 1.453-1 4.406-1.109l2.265-.062v-.579q0-1.984-2.03-1.984-1.579 0-3.704.938l-1.172-2.407q2.25-1.187 5.016-1.187 2.625 0 4.031 1.156 1.406 1.14 1.406 3.484v8.735h-2.484zm-1.063-6.078l-1.375.047q-1.562.046-2.328.562-.765.516-.765 1.578 0 1.516 1.734 1.516 1.25 0 1.984-.719.75-.719.75-1.906v-1.078zm14.528-7.266q2.312 0 3.625 1.813 1.312 1.796 1.312 4.953 0 3.25-1.359 5.03-1.344 1.782-3.672 1.782-2.312 0-3.625-1.672h-.25l-.594 1.438h-2.734V19.559h3.578v4.235q0 .812-.14 2.594h.14q1.25-1.938 3.719-1.938zm-1.156 2.86q-1.329 0-1.938.812-.61.812-.625 2.687v.391q0 2.11.625 3.031.625.907 1.984.907 1.11 0 1.75-1.016.657-1.016.657-2.953 0-1.938-.657-2.89-.656-.97-1.796-.97zm12.625 10.484h-3.579V19.559h3.579v18.235zm9.168-10.813q-1.125 0-1.782.735-.64.718-.734 2.03h5.016q-.016-1.312-.688-2.03-.672-.735-1.812-.735zm.515 11.047q-3.172 0-4.953-1.75-1.781-1.75-1.781-4.937 0-3.297 1.64-5.094 1.657-1.797 4.563-1.797 2.781 0 4.328 1.578 1.547 1.578 1.547 4.375v1.735h-8.453q.062 1.515.906 2.375.844.859 2.36.859 1.187 0 2.234-.25 1.062-.25 2.203-.781v2.765q-.938.469-2 .688-1.063.234-2.594.234z"/><path fill="#000" d="M675.122 75.565q0 2.265-1.64 3.53-1.64 1.266-4.453 1.266-3.047 0-4.688-.78v-1.923q1.047.438 2.281.703 1.25.25 2.47.25 2 0 3-.75 1.015-.765 1.015-2.109 0-.89-.36-1.453-.359-.578-1.203-1.047-.828-.484-2.547-1.094-2.39-.859-3.421-2.03-1.016-1.173-1.016-3.063 0-1.97 1.484-3.141 1.485-1.172 3.938-1.172 2.562 0 4.703.938l-.625 1.734q-2.125-.89-4.125-.89-1.578 0-2.469.687-.89.672-.89 1.875 0 .89.328 1.469.328.562 1.11 1.03.78.47 2.374 1.048 2.703.968 3.719 2.078 1.015 1.094 1.015 2.844zm7.36 3.187q.515 0 .984-.078.485-.078.766-.156v1.484q-.313.156-.938.25-.609.11-1.093.11-3.735 0-3.735-3.922v-7.641h-1.844v-.938l1.844-.812.828-2.75h1.125v2.984h3.72V68.8h-3.72v7.547q0 1.172.547 1.797.547.61 1.516.61zm15.41-5.062q0 3.14-1.594 4.906-1.578 1.765-4.36 1.765-1.733 0-3.077-.812-1.328-.813-2.063-2.313-.718-1.515-.718-3.546 0-3.141 1.562-4.891 1.578-1.75 4.375-1.75 2.688 0 4.281 1.797 1.594 1.781 1.594 4.844zm-9.797 0q0 2.468.985 3.765.984 1.281 2.906 1.281 1.906 0 2.89-1.28 1-1.298 1-3.766 0-2.454-1-3.72-.984-1.265-2.921-1.265-1.907 0-2.891 1.25-.969 1.25-.969 3.735zm19.059-6.641q.86 0 1.531.14l-.266 1.797q-.797-.171-1.406-.171-1.562 0-2.672 1.265-1.094 1.266-1.094 3.156v6.891h-1.953V67.283h1.61l.218 2.375h.094q.719-1.25 1.719-1.922 1.016-.687 2.219-.687zm9.36 13.312q-2.845 0-4.5-1.734-1.642-1.734-1.642-4.812 0-3.11 1.532-4.938 1.531-1.828 4.11-1.828 2.421 0 3.827 1.594 1.406 1.578 1.406 4.187v1.219h-8.859q.063 2.266 1.14 3.437 1.094 1.172 3.063 1.172 2.078 0 4.094-.859v1.734q-1.031.438-1.953.625-.906.203-2.219.203zm-.517-11.687q-1.546 0-2.468 1.016-.922 1-1.094 2.78h6.719q0-1.843-.828-2.812-.813-.984-2.329-.984zm26.34 11.453h-3.578v-7.656q0-1.422-.484-2.125-.469-.703-1.485-.703-1.375 0-2 1.015-.609 1-.609 3.297v6.172h-3.578v-13.11h2.734l.485 1.688h.187q.531-.906 1.531-1.406 1-.516 2.282-.516 2.937 0 3.984 1.922h.313q.53-.922 1.546-1.422 1.032-.5 2.329-.5 2.218 0 3.359 1.141 1.156 1.14 1.156 3.656v8.547h-3.594v-7.656q0-1.422-.484-2.125-.469-.703-1.484-.703-1.313 0-1.969.937-.64.938-.64 2.969v6.578zm17.254-10.812q-1.125 0-1.781.734-.64.719-.734 2.031h5.015q-.015-1.312-.687-2.031-.672-.734-1.813-.734zm.516 11.046q-3.172 0-4.953-1.75-1.782-1.75-1.782-4.937 0-3.297 1.641-5.094 1.656-1.797 4.563-1.797 2.78 0 4.328 1.578 1.547 1.579 1.547 4.375v1.735h-8.454q.063 1.515.907 2.375.843.86 2.36.86 1.187 0 2.233-.25 1.063-.25 2.204-.782v2.766q-.938.468-2 .687-1.063.234-2.594.234zm13.758-2.843q.937 0 2.25-.422v2.672q-1.328.593-3.282.593-2.14 0-3.125-1.078-.968-1.093-.968-3.265v-6.313h-1.72V68.19l1.97-1.188 1.03-2.766h2.298v2.782h3.656v2.687h-3.656v6.313q0 .765.422 1.14.422.36 1.125.36zm13.23 2.61l-.703-1.782h-.094q-.89 1.14-1.86 1.578-.952.437-2.483.437-1.891 0-2.97-1.078-1.077-1.078-1.077-3.078 0-2.078 1.453-3.062 1.453-1 4.406-1.11l2.266-.062v-.578q0-1.985-2.032-1.985-1.578 0-3.703.938l-1.172-2.406q2.25-1.188 5.016-1.188 2.625 0 4.031 1.156 1.407 1.141 1.407 3.485v8.734h-2.485zm-1.062-6.079l-1.375.047q-1.563.047-2.328.562-.766.516-.766 1.578 0 1.516 1.734 1.516 1.25 0 1.985-.719.75-.718.75-1.906V74.05zm11.386 6.312q-2.312 0-3.64-1.796-1.313-1.797-1.313-4.97 0-3.218 1.344-5.015 1.344-1.797 3.703-1.797 2.469 0 3.766 1.922h.125q-.282-1.469-.282-2.625v-4.187h3.594v18.234h-2.75l-.687-1.703h-.157q-1.218 1.937-3.703 1.937zm1.25-2.843q1.375 0 2-.797.641-.797.703-2.719v-.375q0-2.11-.656-3.016-.64-.921-2.11-.921-1.187 0-1.859 1.015-.656 1-.656 2.938 0 1.937.656 2.906.672.969 1.922.969zm18.11 2.61l-.703-1.782h-.094q-.89 1.14-1.86 1.578-.953.437-2.484.437-1.89 0-2.969-1.078-1.078-1.078-1.078-3.078 0-2.078 1.453-3.062 1.453-1 4.407-1.11l2.265-.062v-.578q0-1.985-2.031-1.985-1.578 0-3.703.938l-1.172-2.406q2.25-1.188 5.016-1.188 2.625 0 4.03 1.156 1.407 1.141 1.407 3.485v8.734h-2.484zm-1.063-6.079l-1.375.047q-1.562.047-2.328.562-.766.516-.766 1.578 0 1.516 1.735 1.516 1.25 0 1.984-.719.75-.718.75-1.906V74.05zm12.746 3.469q.938 0 2.25-.422v2.672q-1.328.593-3.28.593-2.142 0-3.126-1.078-.969-1.093-.969-3.265v-6.313h-1.718V68.19l1.968-1.188 1.032-2.766h2.296v2.782h3.657v2.687h-3.657v6.313q0 .765.422 1.14.422.36 1.125.36zm13.23 2.61l-.702-1.782h-.094q-.89 1.14-1.86 1.578-.953.437-2.484.437-1.89 0-2.969-1.078-1.078-1.078-1.078-3.078 0-2.078 1.453-3.062 1.454-1 4.407-1.11l2.265-.062v-.578q0-1.985-2.03-1.985-1.58 0-3.704.938l-1.172-2.406q2.25-1.188 5.016-1.188 2.625 0 4.03 1.156 1.407 1.141 1.407 3.485v8.734h-2.484zm-1.062-6.079l-1.375.047q-1.562.047-2.328.562-.765.516-.765 1.578 0 1.516 1.734 1.516 1.25 0 1.984-.719.75-.718.75-1.906V74.05zm21.559 6.078l-.39-1.828h-.094q-.97 1.203-1.922 1.64-.953.422-2.375.422-1.922 0-3-.984t-1.078-2.797q0-3.89 6.218-4.078l2.172-.078v-.797q0-1.516-.656-2.234-.64-.719-2.063-.719-1.609 0-3.64.984l-.594-1.484q.953-.516 2.078-.813 1.125-.296 2.266-.296 2.297 0 3.406 1.03 1.11 1.016 1.11 3.266v8.766h-1.438zm-4.406-1.375q1.828 0 2.859-.984 1.031-1 1.031-2.797v-1.156l-1.937.078q-2.328.078-3.36.718-1.015.641-1.015 1.985 0 1.062.64 1.61.641.546 1.782.546zm15.832-11.687q2.53 0 3.922 1.734 1.406 1.734 1.406 4.89 0 3.172-1.422 4.922-1.406 1.75-3.906 1.75-1.266 0-2.297-.453-1.031-.468-1.735-1.437h-.14l-.422 1.656h-1.39V61.893h1.952v4.422q0 1.5-.093 2.671h.093q1.36-1.921 4.032-1.921zm-.282 1.64q-2 0-2.875 1.14-.875 1.141-.875 3.845 0 2.703.891 3.875.906 1.171 2.906 1.171 1.782 0 2.657-1.312.89-1.313.89-3.75 0-2.516-.89-3.734-.875-1.235-2.704-1.235zm20.098 4.985q0 3.14-1.594 4.906-1.578 1.765-4.359 1.765-1.734 0-3.078-.812-1.328-.813-2.063-2.313-.718-1.515-.718-3.546 0-3.141 1.562-4.891 1.578-1.75 4.375-1.75 2.688 0 4.281 1.797 1.594 1.781 1.594 4.844zm-9.797 0q0 2.468.985 3.765.984 1.281 2.906 1.281 1.906 0 2.89-1.28 1-1.298 1-3.766 0-2.454-1-3.72-.984-1.265-2.921-1.265-1.907 0-2.891 1.25-.969 1.25-.969 3.735zm15.028-6.407v8.328q0 1.579.718 2.36.72.765 2.235.765 2.015 0 2.937-1.093.938-1.11.938-3.61v-6.75h1.953v12.844h-1.61l-.28-1.719h-.11q-.594.938-1.656 1.453-1.063.5-2.422.5-2.344 0-3.516-1.109-1.156-1.125-1.156-3.562v-8.407h1.969zm17.058 11.47q.516 0 .985-.079.484-.078.765-.156v1.484q-.312.156-.937.25-.61.11-1.094.11-3.734 0-3.734-3.922v-7.641h-1.844v-.938l1.844-.812.828-2.75h1.125v2.984h3.718V68.8h-3.718v7.547q0 1.172.547 1.797.546.61 1.515.61zm-244.582 30.275q-1.266 0-2.297-.453-1.031-.469-1.734-1.437h-.14q.14 1.125.14 2.14v5.281h-1.953V95.95h1.578l.281 1.75h.094q.75-1.047 1.734-1.516 1-.468 2.297-.468 2.547 0 3.938 1.75 1.39 1.734 1.39 4.89 0 3.172-1.422 4.922-1.406 1.75-3.906 1.75zm-.281-11.656q-1.969 0-2.86 1.094-.875 1.078-.89 3.453v.437q0 2.703.89 3.875.907 1.172 2.907 1.172 1.656 0 2.593-1.344.954-1.359.954-3.718 0-2.407-.954-3.688-.937-1.281-2.64-1.281zm14.863-1.656q.86 0 1.531.14l-.265 1.797q-.797-.172-1.406-.172-1.563 0-2.672 1.266-1.094 1.266-1.094 3.156v6.89h-1.953V95.95h1.61l.218 2.375h.094q.718-1.25 1.718-1.922 1.016-.687 2.22-.687zm15.031 6.64q0 3.14-1.593 4.907-1.578 1.765-4.36 1.765-1.734 0-3.078-.812-1.328-.813-2.062-2.313-.72-1.515-.72-3.547 0-3.14 1.563-4.89 1.579-1.75 4.375-1.75 2.688 0 4.282 1.797 1.593 1.78 1.593 4.843zm-9.796 0q0 2.469.984 3.766.984 1.281 2.906 1.281 1.906 0 2.89-1.281 1-1.297 1-3.766 0-2.453-1-3.718-.984-1.266-2.921-1.266-1.906 0-2.89 1.25-.97 1.25-.97 3.734zm16.011 6.438l-4.875-12.844h2.094l2.766 7.61q.937 2.671 1.093 3.468h.094q.125-.61.813-2.562.687-1.953 3.078-8.516h2.093l-4.875 12.844h-2.28zm14.633.234q-2.844 0-4.5-1.734-1.64-1.735-1.64-4.813 0-3.11 1.53-4.937 1.532-1.828 4.11-1.828 2.422 0 3.828 1.593 1.406 1.579 1.406 4.188v1.219h-8.859q.063 2.265 1.14 3.437 1.094 1.172 3.063 1.172 2.078 0 4.094-.86v1.735q-1.031.438-1.953.625-.906.203-2.219.203zm-.516-11.687q-1.546 0-2.468 1.015-.922 1-1.094 2.782h6.719q0-1.844-.828-2.813-.813-.984-2.329-.984zm17.356 11.453v-8.313q0-1.562-.719-2.328-.719-.781-2.234-.781-2.016 0-2.953 1.094-.938 1.078-.938 3.593v6.735h-1.953V95.95h1.578l.328 1.75h.094q.594-.937 1.672-1.453 1.078-.531 2.406-.531 2.313 0 3.485 1.125 1.171 1.109 1.171 3.578v8.375h-1.937zm13.84 0l-.39-1.828h-.095q-.968 1.203-1.922 1.64-.953.422-2.375.422-1.921 0-3-.984-1.078-.985-1.078-2.797 0-3.89 6.22-4.078l2.171-.078v-.797q0-1.516-.656-2.235-.64-.718-2.063-.718-1.61 0-3.64.984l-.594-1.484q.953-.516 2.078-.813 1.125-.297 2.266-.297 2.296 0 3.406 1.032 1.11 1.015 1.11 3.265v8.766h-1.438zm-4.407-1.375q1.829 0 2.86-.985 1.031-1 1.031-2.796v-1.157l-1.937.078q-2.329.079-3.36.72-1.015.64-1.015 1.984 0 1.062.64 1.609.64.547 1.781.547zm18.645 1.375v-8.313q0-1.562-.719-2.328-.718-.781-2.234-.781-2.016 0-2.953 1.094-.938 1.078-.938 3.593v6.735h-1.953V95.95h1.578l.328 1.75h.094q.594-.937 1.672-1.453 1.078-.531 2.406-.531 2.313 0 3.485 1.125 1.172 1.109 1.172 3.578v8.375h-1.938zm11.074.234q-2.797 0-4.328-1.719-1.531-1.718-1.531-4.859 0-3.219 1.547-4.969 1.562-1.765 4.437-1.765.922 0 1.844.203.937.187 1.453.469l-.594 1.64q-.64-.25-1.406-.422-.766-.172-1.344-.172-3.922 0-3.922 5 0 2.36.954 3.625.968 1.266 2.843 1.266 1.594 0 3.282-.687v1.718q-1.282.672-3.235.672zm11.707 0q-2.843 0-4.5-1.734-1.64-1.735-1.64-4.813 0-3.11 1.53-4.937 1.532-1.828 4.11-1.828 2.422 0 3.828 1.593 1.407 1.579 1.407 4.188v1.219h-8.86q.063 2.265 1.14 3.437 1.095 1.172 3.063 1.172 2.079 0 4.094-.86v1.735q-1.031.438-1.953.625-.906.203-2.219.203zm-.515-11.687q-1.547 0-2.47 1.015-.921 1-1.093 2.782h6.719q0-1.844-.828-2.813-.813-.984-2.328-.984zm22.699 11.453l-.39-1.828h-.095q-.968 1.203-1.921 1.64-.954.422-2.375.422-1.922 0-3-.984-1.079-.985-1.079-2.797 0-3.89 6.22-4.078l2.171-.078v-.797q0-1.516-.656-2.235-.64-.718-2.063-.718-1.609 0-3.64.984l-.594-1.484q.953-.516 2.078-.813 1.125-.297 2.266-.297 2.297 0 3.406 1.032 1.11 1.015 1.11 3.265v8.766h-1.438zm-4.406-1.375q1.828 0 2.859-.985 1.031-1 1.031-2.796v-1.157l-1.937.078q-2.328.079-3.36.72-1.015.64-1.015 1.984 0 1.062.64 1.609.641.547 1.782.547zm18.644 1.375v-8.313q0-1.562-.719-2.328-.718-.781-2.234-.781-2.016 0-2.953 1.094-.938 1.078-.938 3.593v6.735h-1.953V95.95h1.578l.329 1.75h.093q.594-.937 1.672-1.453 1.078-.531 2.406-.531 2.313 0 3.485 1.125 1.172 1.109 1.172 3.578v8.375h-1.938zm14.684-1.719h-.11q-1.343 1.953-4.03 1.953-2.517 0-3.923-1.719-1.406-1.734-1.406-4.906 0-3.172 1.406-4.922 1.406-1.765 3.922-1.765 2.61 0 4 1.89h.156l-.078-.922-.047-.906V90.56h1.938v18.235h-1.578l-.25-1.719zm-3.89.328q1.983 0 2.874-1.078.906-1.094.906-3.516v-.406q0-2.734-.906-3.89-.906-1.172-2.906-1.172-1.703 0-2.625 1.328-.906 1.328-.906 3.765 0 2.454.906 3.72.906 1.25 2.656 1.25zM669.31 136.419q.516 0 .984-.078.485-.078.766-.157v1.485q-.313.156-.938.25-.609.11-1.093.11-3.735 0-3.735-3.923v-7.64h-1.843v-.938l1.843-.812.828-2.75h1.125v2.984h3.72v1.516h-3.72v7.547q0 1.171.547 1.796.547.61 1.516.61zm10.176-11.703q.86 0 1.531.14l-.266 1.797q-.796-.172-1.406-.172-1.562 0-2.672 1.266-1.093 1.266-1.093 3.156v6.89h-1.954V124.95h1.61l.219 2.375h.093q.719-1.25 1.719-1.922 1.016-.687 2.219-.687zm11.844 13.078l-.391-1.828h-.094q-.969 1.203-1.922 1.64-.953.422-2.375.422-1.922 0-3-.984-1.078-.985-1.078-2.797 0-3.89 6.219-4.078l2.172-.078v-.797q0-1.516-.656-2.235-.641-.718-2.063-.718-1.61 0-3.64.984l-.594-1.484q.953-.516 2.078-.813 1.125-.297 2.265-.297 2.297 0 3.407 1.032 1.109 1.015 1.109 3.265v8.766h-1.437zm-4.407-1.375q1.828 0 2.86-.985 1.03-1 1.03-2.796v-1.157l-1.937.078q-2.328.079-3.359.72-1.016.64-1.016 1.984 0 1.062.641 1.609.64.547 1.781.547zm18.645 1.375v-8.313q0-1.562-.719-2.328-.719-.781-2.234-.781-2.016 0-2.953 1.094-.938 1.078-.938 3.593v6.735h-1.953V124.95h1.578l.328 1.75h.094q.594-.937 1.672-1.453 1.078-.531 2.406-.531 2.313 0 3.484 1.125 1.172 1.109 1.172 3.578v8.375h-1.937zm14.215-3.5q0 1.781-1.344 2.765-1.328.97-3.734.97-2.563 0-3.985-.813v-1.797q.922.469 1.985.734 1.062.266 2.046.266 1.516 0 2.329-.485.828-.484.828-1.484 0-.75-.657-1.281-.64-.531-2.53-1.266-1.782-.656-2.548-1.156-.75-.5-1.125-1.125-.36-.64-.36-1.516 0-1.578 1.267-2.484 1.28-.906 3.515-.906 2.063 0 4.047.843l-.687 1.579q-1.938-.797-3.5-.797-1.391 0-2.094.437-.703.438-.703 1.188 0 .515.265.89.266.36.844.688.594.328 2.25.953 2.297.828 3.094 1.672.797.844.797 2.125zm8.964-7.828h-3.28v11.328h-1.938v-11.328h-2.297v-.891l2.297-.703v-.703q0-4.735 4.14-4.735 1.016 0 2.391.407l-.516 1.562q-1.125-.375-1.922-.375-1.093 0-1.625.735-.53.734-.53 2.359v.828h3.28v1.516zm13.43 4.89q0 3.14-1.594 4.907-1.578 1.765-4.359 1.765-1.734 0-3.078-.812-1.328-.813-2.063-2.313-.718-1.515-.718-3.547 0-3.14 1.562-4.89 1.578-1.75 4.375-1.75 2.688 0 4.281 1.797 1.594 1.78 1.594 4.843zm-9.797 0q0 2.469.985 3.766.984 1.281 2.906 1.281 1.906 0 2.89-1.281 1-1.297 1-3.766 0-2.453-1-3.718-.984-1.266-2.921-1.266-1.907 0-2.89 1.25-.97 1.25-.97 3.734zm19.059-6.64q.86 0 1.531.14l-.265 1.797q-.797-.172-1.407-.172-1.562 0-2.672 1.266-1.093 1.266-1.093 3.156v6.89h-1.953V124.95h1.609l.219 2.375h.093q.72-1.25 1.72-1.922 1.015-.687 2.218-.687zm20.312 13.078v-8.36q0-1.53-.656-2.296-.656-.766-2.047-.766-1.812 0-2.687 1.047-.86 1.031-.86 3.203v7.172h-1.937v-8.36q0-1.53-.656-2.296-.657-.766-2.063-.766-1.828 0-2.672 1.094-.843 1.093-.843 3.593v6.735h-1.954V124.95h1.579l.328 1.75h.093q.547-.937 1.547-1.453 1-.531 2.25-.531 3 0 3.938 2.172h.094q.562-1 1.656-1.579 1.094-.593 2.484-.593 2.188 0 3.266 1.125 1.078 1.109 1.078 3.578v8.375h-1.938zm13.856 0l-.39-1.828h-.094q-.97 1.203-1.922 1.64-.953.422-2.375.422-1.922 0-3-.984-1.078-.985-1.078-2.797 0-3.89 6.218-4.078l2.172-.078v-.797q0-1.516-.656-2.235-.64-.718-2.063-.718-1.609 0-3.64.984l-.594-1.484q.953-.516 2.078-.813 1.125-.297 2.266-.297 2.297 0 3.406 1.032 1.11 1.015 1.11 3.265v8.766h-1.438zm-4.406-1.375q1.828 0 2.859-.985 1.031-1 1.031-2.796v-1.157l-1.937.078q-2.328.079-3.36.72-1.015.64-1.015 1.984 0 1.062.64 1.609.641.547 1.782.547zm14.004 0q.515 0 .984-.078.484-.078.766-.157v1.485q-.313.156-.938.25-.61.11-1.094.11-3.734 0-3.734-3.923v-7.64h-1.844v-.938l1.844-.812.828-2.75h1.125v2.984h3.719v1.516h-3.719v7.547q0 1.171.547 1.796.547.61 1.516.61zm6.27 1.375h-1.954V124.95h1.953v12.844zm-2.11-16.328q0-.672.328-.97.328-.312.812-.312.47 0 .813.313.344.312.344.969 0 .656-.344.984-.344.313-.813.313-.484 0-.812-.313-.328-.328-.328-.984zm17.32 9.89q0 3.14-1.594 4.907-1.578 1.765-4.36 1.765-1.734 0-3.077-.812-1.328-.813-2.063-2.313-.719-1.515-.719-3.547 0-3.14 1.563-4.89 1.578-1.75 4.375-1.75 2.687 0 4.281 1.797 1.594 1.78 1.594 4.843zm-9.797 0q0 2.469.984 3.766.985 1.281 2.907 1.281 1.906 0 2.89-1.281 1-1.297 1-3.766 0-2.453-1-3.718-.984-1.266-2.922-1.266-1.906 0-2.89 1.25-.969 1.25-.969 3.734zm21.996 6.438v-8.313q0-1.562-.719-2.328-.718-.781-2.234-.781-2.016 0-2.953 1.094-.938 1.078-.938 3.593v6.735h-1.953V124.95h1.578l.329 1.75h.093q.594-.937 1.672-1.453 1.078-.531 2.406-.531 2.313 0 3.485 1.125 1.172 1.109 1.172 3.578v8.375h-1.938zM665.45 162.986h4.844q3.407 0 4.922 1.032 1.531 1.015 1.531 3.218 0 1.516-.859 2.516-.844.984-2.469 1.281v.11q3.907.672 3.907 4.11 0 2.296-1.563 3.593-1.547 1.281-4.344 1.281h-5.968v-17.14zm1.985 7.344h3.281q2.11 0 3.031-.656.938-.672.938-2.234 0-1.454-1.031-2.079-1.032-.64-3.282-.64h-2.937v5.61zm0 1.688v6.406h3.578q2.078 0 3.125-.797 1.047-.812 1.047-2.516 0-1.593-1.078-2.343-1.063-.75-3.25-.75h-3.422zm15.098-4.735v8.328q0 1.579.718 2.36.72.765 2.235.765 2.015 0 2.937-1.093.938-1.11.938-3.61v-6.75h1.953v12.844h-1.61l-.28-1.719h-.11q-.594.938-1.656 1.453-1.063.5-2.422.5-2.344 0-3.516-1.109-1.156-1.125-1.156-3.562v-8.407h1.969zm14.855 12.844h-1.953v-12.844h1.953v12.844zm-2.11-16.328q0-.672.329-.969.328-.312.812-.312.47 0 .813.312.344.313.344.969 0 .656-.344.984-.344.313-.813.313-.484 0-.812-.313-.328-.328-.328-.984zm8.18 16.328h-1.953v-18.234h1.953v18.234zm12.868-1.719h-.11q-1.344 1.953-4.031 1.953-2.516 0-3.922-1.718-1.406-1.735-1.406-4.907 0-3.171 1.406-4.921 1.406-1.766 3.922-1.766 2.61 0 4 1.89h.156l-.078-.921-.047-.907v-5.218h1.938v18.234h-1.578l-.25-1.719zm-3.891.328q1.984 0 2.875-1.078.906-1.093.906-3.515v-.407q0-2.734-.906-3.89-.906-1.172-2.906-1.172-1.703 0-2.625 1.328-.907 1.328-.907 3.766 0 2.453.907 3.718.906 1.25 2.656 1.25zm11.8 1.391h-1.952v-12.844h1.953v12.844zm-2.109-16.328q0-.672.329-.969.328-.312.812-.312.469 0 .813.312.343.313.343.969 0 .656-.343.984-.344.313-.813.313-.484 0-.812-.313-.329-.328-.329-.984zm15.024 16.328v-8.312q0-1.563-.719-2.329-.719-.78-2.234-.78-2.016 0-2.953 1.093-.938 1.078-.938 3.594v6.734h-1.953v-12.844h1.578l.328 1.75h.094q.594-.937 1.672-1.453 1.078-.531 2.406-.531 2.313 0 3.484 1.125 1.172 1.11 1.172 3.578v8.375h-1.937zm16.449-12.844v1.235l-2.375.281q.328.406.578 1.078.266.656.266 1.484 0 1.891-1.297 3.016-1.281 1.125-3.531 1.125-.578 0-1.078-.094-1.25.657-1.25 1.641 0 .531.437.781.438.25 1.484.25h2.282q2.078 0 3.187.89 1.125.876 1.125 2.548 0 2.14-1.719 3.25-1.703 1.125-4.984 1.125-2.516 0-3.89-.938-1.36-.937-1.36-2.64 0-1.172.75-2.032.75-.859 2.11-1.172-.485-.218-.829-.687-.328-.469-.328-1.094 0-.703.375-1.219.375-.53 1.188-1.03-1-.407-1.625-1.391-.625-.985-.625-2.25 0-2.11 1.265-3.25 1.266-1.141 3.578-1.141 1.016 0 1.829.234h4.437zm-10.25 15q0 1.047.875 1.578.89.547 2.531.547 2.453 0 3.625-.734 1.172-.734 1.172-1.984 0-1.047-.64-1.454-.641-.406-2.422-.406h-2.328q-1.329 0-2.079.625-.734.64-.734 1.828zm1.063-10.89q0 1.343.75 2.047.765.687 2.125.687 2.859 0 2.859-2.766 0-2.89-2.89-2.89-1.376 0-2.11.734-.734.735-.734 2.188zm22.21 7.36q.516 0 .985-.079.484-.078.765-.156v1.484q-.312.156-.937.25-.61.11-1.094.11-3.734 0-3.734-3.922v-7.641h-1.844v-.938l1.844-.812.828-2.75h1.125v2.984h3.719v1.516h-3.719v7.547q0 1.172.547 1.797.547.61 1.515.61zm15.41-5.063q0 3.14-1.593 4.906-1.578 1.765-4.36 1.765-1.734 0-3.078-.812-1.328-.813-2.062-2.313-.719-1.515-.719-3.546 0-3.141 1.563-4.891 1.578-1.75 4.375-1.75 2.687 0 4.28 1.797 1.595 1.781 1.595 4.844zm-9.796 0q0 2.468.984 3.765.985 1.281 2.906 1.281 1.907 0 2.891-1.28 1-1.298 1-3.766 0-2.454-1-3.72-.984-1.265-2.922-1.265-1.906 0-2.89 1.25-.97 1.25-.97 3.735zm23.715-6.407v1.235l-2.375.281q.328.406.578 1.078.265.656.265 1.484 0 1.891-1.297 3.016-1.28 1.125-3.53 1.125-.579 0-1.079-.094-1.25.657-1.25 1.641 0 .531.438.781.437.25 1.484.25h2.281q2.078 0 3.188.89 1.125.876 1.125 2.548 0 2.14-1.719 3.25-1.703 1.125-4.984 1.125-2.516 0-3.891-.938-1.36-.937-1.36-2.64 0-1.172.75-2.032.75-.859 2.11-1.172-.484-.218-.828-.687-.328-.469-.328-1.094 0-.703.375-1.219.375-.53 1.187-1.03-1-.407-1.625-1.391-.625-.985-.625-2.25 0-2.11 1.266-3.25 1.265-1.141 3.578-1.141 1.016 0 1.828.234h4.438zm-10.25 15q0 1.047.875 1.578.89.547 2.53.547 2.454 0 3.626-.734 1.172-.734 1.172-1.984 0-1.047-.64-1.454-.642-.406-2.423-.406h-2.328q-1.328 0-2.078.625-.734.64-.734 1.828zm1.062-10.89q0 1.343.75 2.047.766.687 2.125.687 2.86 0 2.86-2.766 0-2.89-2.891-2.89-1.375 0-2.11.734-.734.735-.734 2.188zm17.242 8.968q-2.843 0-4.5-1.734-1.64-1.734-1.64-4.812 0-3.11 1.53-4.938 1.532-1.828 4.11-1.828 2.422 0 3.828 1.594 1.407 1.578 1.407 4.187v1.219h-8.86q.063 2.266 1.14 3.437 1.095 1.172 3.063 1.172 2.079 0 4.094-.859v1.734q-1.031.438-1.953.625-.906.203-2.219.203zm-.515-11.687q-1.547 0-2.47 1.016-.921 1-1.093 2.78h6.719q0-1.843-.828-2.812-.813-.984-2.328-.984zm12.715 10.078q.515 0 .984-.078.484-.078.766-.156v1.484q-.313.156-.938.25-.61.11-1.094.11-3.734 0-3.734-3.922v-7.641h-1.844v-.938l1.844-.812.828-2.75h1.125v2.984h3.719v1.516h-3.719v7.547q0 1.172.547 1.797.547.61 1.516.61zm13.113 1.375v-8.312q0-1.563-.719-2.329-.719-.78-2.234-.78-2.032 0-2.97 1.109-.921 1.093-.921 3.593v6.72h-1.953v-18.235h1.953v5.515q0 1-.094 1.657h.11q.578-.922 1.64-1.454 1.063-.546 2.422-.546 2.344 0 3.516 1.125 1.187 1.125 1.187 3.562v8.375h-1.937zm11.355.234q-2.843 0-4.5-1.734-1.64-1.734-1.64-4.812 0-3.11 1.53-4.938 1.532-1.828 4.11-1.828 2.422 0 3.828 1.594 1.407 1.578 1.407 4.187v1.219h-8.86q.063 2.266 1.14 3.437 1.095 1.172 3.063 1.172 2.079 0 4.094-.859v1.734q-1.031.438-1.953.625-.906.203-2.219.203zm-.515-11.687q-1.547 0-2.47 1.016-.921 1-1.093 2.78h6.719q0-1.843-.828-2.812-.813-.984-2.328-.984zm14.418-1.625q.859 0 1.53.14l-.265 1.797q-.797-.171-1.406-.171-1.563 0-2.672 1.265-1.094 1.266-1.094 3.156v6.891h-1.953v-12.844h1.61l.218 2.375h.094q.719-1.25 1.719-1.922 1.015-.687 2.219-.687zm18.078 13.078l-.39-1.828h-.095q-.968 1.203-1.922 1.64-.953.422-2.375.422-1.921 0-3-.984-1.078-.984-1.078-2.797 0-3.89 6.22-4.078l2.171-.078v-.797q0-1.516-.656-2.234-.64-.719-2.063-.719-1.61 0-3.64.984l-.594-1.484q.953-.516 2.078-.813 1.125-.296 2.266-.296 2.296 0 3.406 1.03 1.11 1.016 1.11 3.266v8.766h-1.438zm-4.407-1.375q1.829 0 2.86-.984 1.031-1 1.031-2.797v-1.156l-1.937.078q-2.329.078-3.36.718-1.015.641-1.015 1.985 0 1.062.64 1.61.64.546 1.781.546zm18.645 1.375v-8.312q0-1.563-.719-2.329-.718-.78-2.234-.78-2.016 0-2.953 1.093-.938 1.078-.938 3.594v6.734h-1.953v-12.844h1.578l.328 1.75h.094q.594-.937 1.672-1.453 1.078-.531 2.406-.531 2.313 0 3.485 1.125 1.172 1.11 1.172 3.578v8.375h-1.938zm-219.785 28.667h-1.953V195.95h1.953v12.844zm-2.11-16.328q0-.672.329-.97.328-.312.812-.312.469 0 .813.313.343.312.343.969 0 .656-.343.984-.344.313-.813.313-.484 0-.812-.313-.328-.328-.328-.984zm15.024 16.328v-8.313q0-1.562-.719-2.328-.719-.781-2.234-.781-2.016 0-2.953 1.094-.938 1.078-.938 3.593v6.735h-1.953V195.95h1.578l.328 1.75h.094q.594-.937 1.672-1.453 1.078-.531 2.406-.531 2.313 0 3.485 1.125 1.171 1.109 1.171 3.578v8.375h-1.937zm10.09-1.375q.515 0 .984-.078.485-.078.766-.157v1.485q-.313.156-.938.25-.61.11-1.093.11-3.735 0-3.735-3.923v-7.64h-1.844v-.938l1.844-.812.828-2.75h1.125v2.984h3.72v1.516h-3.72v7.547q0 1.171.547 1.796.547.61 1.516.61zm9.738 1.61q-2.844 0-4.5-1.735-1.64-1.735-1.64-4.813 0-3.11 1.53-4.937 1.532-1.828 4.11-1.828 2.422 0 3.828 1.593 1.406 1.579 1.406 4.188v1.219h-8.859q.063 2.265 1.14 3.437 1.094 1.172 3.063 1.172 2.078 0 4.094-.86v1.735q-1.031.438-1.953.625-.906.203-2.219.203zm-.516-11.688q-1.546 0-2.468 1.015-.922 1-1.094 2.782h6.719q0-1.844-.828-2.813-.813-.984-2.329-.984zm14.418-1.625q.86 0 1.532.14l-.266 1.797q-.797-.172-1.406-.172-1.563 0-2.672 1.266-1.094 1.266-1.094 3.156v6.89h-1.953V195.95h1.61l.218 2.375h.094q.719-1.25 1.719-1.922 1.015-.687 2.218-.687zm12.735 13.078v-8.313q0-1.562-.719-2.328-.719-.781-2.234-.781-2.016 0-2.953 1.094-.938 1.078-.938 3.593v6.735h-1.953V195.95h1.578l.328 1.75h.094q.594-.937 1.672-1.453 1.078-.531 2.406-.531 2.313 0 3.484 1.125 1.172 1.109 1.172 3.578v8.375h-1.937zm11.355.234q-2.843 0-4.5-1.734-1.64-1.735-1.64-4.813 0-3.11 1.53-4.937 1.532-1.828 4.11-1.828 2.422 0 3.828 1.593 1.407 1.579 1.407 4.188v1.219h-8.86q.063 2.265 1.14 3.437 1.095 1.172 3.063 1.172 2.079 0 4.094-.86v1.735q-1.031.438-1.953.625-.906.203-2.219.203zm-.515-11.687q-1.547 0-2.47 1.015-.921 1-1.093 2.782h6.719q0-1.844-.828-2.813-.813-.984-2.328-.984zm12.714 10.078q.516 0 .985-.078.484-.078.765-.157v1.485q-.312.156-.937.25-.61.11-1.094.11-3.734 0-3.734-3.923v-7.64h-1.844v-.938l1.844-.812.828-2.75h1.125v2.984h3.719v1.516h-3.719v7.547q0 1.171.547 1.796.547.61 1.515.61zm21.645-5.063q0 3.14-1.594 4.907-1.578 1.765-4.36 1.765-1.733 0-3.077-.812-1.328-.813-2.063-2.313-.718-1.515-.718-3.547 0-3.14 1.562-4.89 1.578-1.75 4.375-1.75 2.688 0 4.281 1.797 1.594 1.78 1.594 4.843zm-9.797 0q0 2.469.985 3.766.984 1.281 2.906 1.281 1.906 0 2.89-1.281 1-1.297 1-3.766 0-2.453-1-3.718-.984-1.266-2.921-1.266-1.907 0-2.891 1.25-.969 1.25-.969 3.734zm18.996-4.89h-3.281v11.328h-1.938v-11.328h-2.296v-.891l2.296-.703v-.703q0-4.735 4.141-4.735 1.016 0 2.39.407l-.515 1.562q-1.125-.375-1.922-.375-1.094 0-1.625.735-.531.734-.531 2.359v.828h3.281v1.516zm12.242 11.328h-3.578v-17.14h9.828v2.984h-6.25v4.421h5.813v2.954h-5.813v6.78zm20.079 0l-1.235-4.078h-6.25l-1.234 4.078h-3.922l6.047-17.203h4.437l6.078 17.203h-3.921zm-2.11-7.125q-1.719-5.547-1.937-6.266-.22-.734-.313-1.156-.375 1.5-2.203 7.422h4.453zm8.184 7.125v-17.14h3.64v17.14h-3.64zm11.586-9.531h1.172q1.718 0 2.53-.563.829-.578.829-1.812 0-1.22-.844-1.735-.828-.515-2.594-.515h-1.093v4.625zm0 2.953v6.578h-3.64v-17.14h5q3.483 0 5.155 1.28 1.688 1.266 1.688 3.86 0 1.515-.844 2.687-.828 1.172-2.344 1.844 3.86 5.781 5.032 7.469h-4.032l-4.093-6.578h-1.922zm27.093 4.859h-.109q-1.344 1.953-4.031 1.953-2.516 0-3.922-1.719-1.406-1.734-1.406-4.906 0-3.172 1.406-4.922 1.406-1.765 3.922-1.765 2.61 0 4 1.89h.156l-.078-.922-.047-.906v-5.219h1.938v18.235h-1.579l-.25-1.719zm-3.89.328q1.984 0 2.875-1.078.906-1.094.906-3.516v-.406q0-2.734-.906-3.89-.906-1.172-2.906-1.172-1.704 0-2.625 1.328-.907 1.328-.907 3.765 0 2.454.907 3.72.906 1.25 2.656 1.25zm17.754 1.39l-.39-1.827h-.095q-.968 1.203-1.922 1.64-.953.422-2.375.422-1.921 0-3-.984-1.078-.985-1.078-2.797 0-3.89 6.22-4.078l2.171-.078v-.797q0-1.516-.656-2.235-.64-.718-2.063-.718-1.61 0-3.64.984l-.594-1.484q.953-.516 2.078-.813 1.125-.297 2.266-.297 2.296 0 3.406 1.032 1.11 1.015 1.11 3.265v8.766h-1.438zm-4.407-1.374q1.829 0 2.86-.985 1.031-1 1.031-2.796v-1.157l-1.937.078q-2.329.079-3.36.72-1.015.64-1.015 1.984 0 1.062.64 1.609.64.547 1.781.547zm14.004 0q.516 0 .985-.078.484-.078.765-.157v1.485q-.312.156-.937.25-.61.11-1.094.11-3.734 0-3.734-3.923v-7.64h-1.844v-.938l1.844-.812.828-2.75h1.125v2.984h3.719v1.516h-3.72v7.547q0 1.171.548 1.796.547.61 1.515.61zm12.223 1.375l-.39-1.828h-.094q-.97 1.203-1.922 1.64-.953.422-2.375.422-1.922 0-3-.984-1.078-.985-1.078-2.797 0-3.89 6.218-4.078l2.172-.078v-.797q0-1.516-.656-2.235-.64-.718-2.062-.718-1.61 0-3.641.984l-.594-1.484q.953-.516 2.078-.813 1.125-.297 2.266-.297 2.297 0 3.406 1.032 1.11 1.015 1.11 3.265v8.766h-1.438zm-4.406-1.375q1.828 0 2.86-.985 1.03-1 1.03-2.796v-1.157l-1.937.078q-2.328.079-3.36.72-1.015.64-1.015 1.984 0 1.062.64 1.609.641.547 1.782.547zM673.06 237.794l-.39-1.828h-.094q-.97 1.203-1.922 1.64-.953.422-2.375.422-1.922 0-3-.984-1.078-.985-1.078-2.797 0-3.89 6.218-4.078l2.172-.078v-.797q0-1.516-.656-2.235-.64-.718-2.063-.718-1.609 0-3.64.984l-.594-1.484q.953-.516 2.078-.813 1.125-.297 2.266-.297 2.297 0 3.406 1.032 1.11 1.015 1.11 3.265v8.766h-1.438zm-4.406-1.375q1.828 0 2.86-.985 1.03-1 1.03-2.796v-1.157l-1.937.078q-2.328.079-3.36.72-1.015.64-1.015 1.984 0 1.062.64 1.609.641.547 1.782.547zm18.644 1.375v-8.313q0-1.562-.718-2.328-.72-.781-2.235-.781-2.015 0-2.953 1.094-.937 1.078-.937 3.593v6.735H678.5V224.95h1.579l.328 1.75h.093q.594-.937 1.672-1.453 1.078-.531 2.407-.531 2.312 0 3.484 1.125 1.172 1.109 1.172 3.578v8.375h-1.938zm14.684-1.719h-.11q-1.343 1.953-4.03 1.953-2.516 0-3.923-1.719-1.406-1.734-1.406-4.906 0-3.172 1.406-4.922 1.407-1.765 3.922-1.765 2.61 0 4 1.89h.156l-.078-.922-.047-.906v-5.219h1.938v18.235h-1.578l-.25-1.719zm-3.89.328q1.984 0 2.874-1.078.906-1.094.906-3.516v-.406q0-2.734-.906-3.89-.906-1.172-2.906-1.172-1.703 0-2.625 1.328-.906 1.328-.906 3.765 0 2.454.906 3.72.906 1.25 2.656 1.25zm24.363-2.11q0 1.782-1.344 2.766-1.328.97-3.735.97-2.562 0-3.984-.813v-1.797q.922.469 1.984.734 1.063.266 2.047.266 1.516 0 2.328-.485.829-.484.829-1.484 0-.75-.657-1.281-.64-.531-2.531-1.266-1.781-.656-2.547-1.156-.75-.5-1.125-1.125-.36-.64-.36-1.516 0-1.578 1.266-2.484 1.282-.906 3.516-.906 2.063 0 4.047.843l-.688 1.579q-1.937-.797-3.5-.797-1.39 0-2.093.437-.703.438-.703 1.188 0 .515.265.89.266.36.844.688.594.328 2.25.953 2.297.828 3.094 1.672.797.844.797 2.125zm8.59 3.735q-2.844 0-4.5-1.734-1.641-1.735-1.641-4.813 0-3.11 1.531-4.937 1.531-1.828 4.11-1.828 2.421 0 3.827 1.593 1.407 1.579 1.407 4.188v1.219h-8.86q.063 2.265 1.141 3.437 1.094 1.172 3.063 1.172 2.078 0 4.093-.86v1.735q-1.031.438-1.953.625-.906.203-2.219.203zm-.516-11.687q-1.547 0-2.469 1.015-.922 1-1.094 2.782h6.719q0-1.844-.828-2.813-.813-.984-2.328-.984zm14.418-1.625q.86 0 1.531.14l-.266 1.797q-.797-.172-1.406-.172-1.562 0-2.672 1.266-1.094 1.266-1.094 3.156v6.89h-1.953V224.95h1.61l.218 2.375h.094q.719-1.25 1.719-1.922 1.016-.687 2.219-.687zm6.75 13.078l-4.875-12.844h2.093l2.766 7.61q.938 2.671 1.094 3.468h.094q.125-.61.812-2.562.688-1.953 3.078-8.516h2.094l-4.875 12.844h-2.281zm11.164 0h-1.953V224.95h1.953v12.844zm-2.11-16.328q0-.672.329-.97.328-.312.812-.312.469 0 .813.313.343.312.343.969 0 .656-.343.984-.344.313-.813.313-.484 0-.812-.313-.329-.328-.329-.984zm11.368 16.562q-2.797 0-4.329-1.719-1.53-1.718-1.53-4.859 0-3.219 1.546-4.969 1.563-1.765 4.438-1.765.921 0 1.843.203.938.187 1.453.469l-.593 1.64q-.64-.25-1.407-.422-.765-.172-1.343-.172-3.922 0-3.922 5 0 2.36.953 3.625.969 1.266 2.844 1.266 1.593 0 3.281-.687v1.718q-1.281.672-3.234.672zm11.707 0q-2.844 0-4.5-1.734-1.641-1.735-1.641-4.813 0-3.11 1.531-4.937 1.531-1.828 4.11-1.828 2.421 0 3.828 1.593 1.406 1.579 1.406 4.188v1.219h-8.86q.063 2.265 1.141 3.437 1.094 1.172 3.063 1.172 2.078 0 4.093-.86v1.735q-1.03.438-1.953.625-.906.203-2.218.203zm-.516-11.687q-1.547 0-2.469 1.015-.922 1-1.094 2.782h6.72q0-1.844-.829-2.813-.812-.984-2.328-.984zm16.84 7.953q0 1.781-1.344 2.765-1.328.97-3.734.97-2.563 0-3.985-.813v-1.797q.922.469 1.985.734 1.062.266 2.047.266 1.515 0 2.328-.485.828-.484.828-1.484 0-.75-.656-1.281-.641-.531-2.532-1.266-1.78-.656-2.547-1.156-.75-.5-1.125-1.125-.359-.64-.359-1.516 0-1.578 1.266-2.484 1.281-.906 3.515-.906 2.063 0 4.047.843l-.687 1.579q-1.938-.797-3.5-.797-1.39 0-2.094.437-.703.438-.703 1.188 0 .515.265.89.266.36.844.688.594.328 2.25.953 2.297.828 3.094 1.672.797.844.797 2.125z"/><path d="M408.82 130.434h228.616"/><path stroke="#c2c2c2" stroke-linejoin="round" stroke-linecap="butt" d="M408.82 130.434h228.616"/><path fill="#0c58d3" d="M641.364 129.748c0-8.691-6.596-15.737-14.731-15.737-3.907 0-7.654 1.658-10.416 4.61-2.763 2.95-4.315 6.954-4.315 11.127 0 8.692 6.595 15.737 14.73 15.737 8.136 0 14.732-7.045 14.732-15.737z" fill-rule="evenodd"/><path d="M644.99 104.422h-36.716v49.663h36.716z"/><path fill="#d9d9d9" d="M236.948 337.722l185.131 79.78 184.658-79.78-184.184-66.868z" fill-rule="evenodd"/><path fill="#d9d9d9" d="M260.338 301.628l160.578 67.833 160.252-67.445L420.59 243.04z" fill-rule="evenodd"/><path fill="#d9d9d9" d="M293.626 247.196L420.9 301.692l126.948-54.496-126.622-45.677zm49.22-80.16l77.908 33.364 78.564-33.364L421.73 137.5z" fill-rule="evenodd"/><path fill="#0944a1" d="M236.51 337.794l185.21 78.485v107.305L181.134 417.162z" fill-rule="evenodd"/><defs><linearGradient id="b" gradientUnits="userSpaceOnUse" gradientTransform="scale(9.93158)" spreadMethod="pad" x1="27.143" y1="24.89" x2="27.143" y2="34.821"><stop offset="0" stop-color="#ffca37"/><stop offset="1" stop-color="#ad8107"/></linearGradient></defs><path fill="url(#b)" d="M293.86 247.196l-24.288 34.925 151.554 63.71v-44.139z" fill-rule="evenodd"/><path fill="#f4b400" d="M548.077 247.196l24.287 34.925-151.554 63.71v-44.139z" fill-rule="evenodd"/><path fill="#0944a1" d="M343.086 166.973l78.041 33.396v75.612L302.28 225.315z" fill-rule="evenodd"/><path fill="#0d5ddf" d="M498.85 166.973l-78.04 33.396v75.612l118.847-50.666z" fill-rule="evenodd"/><path fill="#0944a1" d="M421.129 46.457l-69.303 98.257 69.303 30.7z" fill-rule="evenodd"/><path fill="#0c58d3" d="M420.808 46.457l69.302 98.257-69.302 30.7z" fill-rule="evenodd"/><path fill="#0944a1" d="M293.898 247.026l-48.176 67.885 175.395 75.102V300.81z" fill-rule="evenodd"/><path fill="#0e65f0" d="M548.024 247.253l48.176 67.885-175.395 75.102v-89.203z" fill-rule="evenodd"/><path fill="#307bf3" d="M606.918 337.794l-185.21 78.485v107.305l240.587-106.422z" fill-rule="evenodd"/><path d="M-117.367 108.958h308.145v166.227h-308.145z"/><path fill="#001c3d" d="M35.97 116.846q0 2.328-1.672 3.672-1.657 1.328-4.641 1.328-2.734 0-4.844-1.031v-3.375q1.735.765 2.922 1.093 1.203.313 2.203.313 1.203 0 1.828-.453.64-.469.64-1.36 0-.515-.28-.906-.282-.39-.828-.75-.532-.36-2.22-1.156-1.562-.75-2.359-1.422-.78-.688-1.25-1.578-.468-.906-.468-2.11 0-2.28 1.547-3.578 1.546-1.297 4.265-1.297 1.328 0 2.531.313 1.22.312 2.547.89l-1.172 2.829q-1.375-.563-2.265-.782-.89-.234-1.766-.234-1.031 0-1.578.484-.547.485-.547 1.25 0 .485.219.844.219.36.703.688.484.328 2.313 1.203 2.39 1.14 3.28 2.297.891 1.156.891 2.828zm8.343 2.156q.938 0 2.25-.422v2.672q-1.328.594-3.281.594-2.14 0-3.125-1.078-.969-1.094-.969-3.266v-6.312H37.47v-1.516l1.97-1.188 1.03-2.765h2.297v2.781h3.657v2.688h-3.657v6.312q0 .766.422 1.14.422.36 1.125.36zm13.23 2.61l-.702-1.782h-.094q-.89 1.14-1.86 1.578-.953.438-2.484.438-1.89 0-2.969-1.078-1.078-1.078-1.078-3.078 0-2.079 1.453-3.063 1.453-1 4.407-1.11l2.265-.062v-.578q0-1.984-2.031-1.984-1.578 0-3.703.937l-1.172-2.406q2.25-1.188 5.016-1.188 2.625 0 4.03 1.157 1.407 1.14 1.407 3.484v8.734h-2.484zm-1.062-6.079l-1.375.047q-1.562.047-2.328.563-.766.515-.766 1.578 0 1.515 1.735 1.515 1.25 0 1.984-.718.75-.719.75-1.907v-1.078zm19.324 6.078h-3.578v-7.656q0-1.422-.5-2.125-.5-.703-1.61-.703-1.5 0-2.171 1-.656 1-.656 3.313v6.171h-3.578v-13.109h2.734l.484 1.688h.188q.61-.954 1.656-1.438 1.047-.484 2.375-.484 2.297 0 3.469 1.234 1.187 1.234 1.187 3.563v8.546zm7.836.235q-2.312 0-3.64-1.797-1.313-1.797-1.313-4.969 0-3.219 1.344-5.015 1.344-1.797 3.703-1.797 2.469 0 3.766 1.922h.125q-.282-1.47-.282-2.625v-4.188h3.594v18.234h-2.75l-.687-1.703h-.157q-1.218 1.938-3.703 1.938zm1.25-2.844q1.375 0 2-.797.64-.797.703-2.719v-.375q0-2.109-.656-3.015-.64-.922-2.11-.922-1.187 0-1.859 1.016-.656 1-.656 2.937 0 1.938.656 2.906.672.97 1.922.97zm18.11 2.61l-.703-1.782h-.094q-.89 1.14-1.86 1.578-.953.438-2.484.438-1.89 0-2.969-1.078-1.078-1.078-1.078-3.078 0-2.079 1.453-3.063 1.453-1 4.407-1.11l2.265-.062v-.578q0-1.984-2.031-1.984-1.578 0-3.703.937l-1.172-2.406q2.25-1.188 5.016-1.188 2.625 0 4.03 1.157 1.407 1.14 1.407 3.484v8.734h-2.484zm-1.063-6.079l-1.375.047q-1.562.047-2.328.563-.766.515-.766 1.578 0 1.515 1.735 1.515 1.25 0 1.984-.718.75-.719.75-1.907v-1.078zm14.543-7.265q.735 0 1.203.093l-.265 3.36q-.438-.125-1.047-.125-1.719 0-2.672.89-.953.875-.953 2.454v6.671h-3.578v-13.109h2.703l.531 2.203h.172q.61-1.094 1.64-1.765 1.047-.672 2.266-.672zm7.742 13.578q-2.312 0-3.64-1.797-1.313-1.797-1.313-4.969 0-3.219 1.344-5.015 1.344-1.797 3.703-1.797 2.469 0 3.766 1.922h.125q-.282-1.47-.282-2.625v-4.188h3.594v18.234h-2.75l-.687-1.703h-.157q-1.218 1.938-3.703 1.938zm1.25-2.844q1.375 0 2-.797.641-.797.703-2.719v-.375q0-2.109-.656-3.015-.64-.922-2.11-.922-1.187 0-1.859 1.016-.656 1-.656 2.937 0 1.938.656 2.906.672.97 1.922.97zm9.625-13.875q0-1.75 1.953-1.75 1.938 0 1.938 1.75 0 .828-.484 1.297-.485.453-1.454.453-1.953 0-1.953-1.75zm3.735 16.484h-3.578v-13.109h3.578v13.11zm12.87 0h-10.359v-2.109l6.079-8.266h-5.704v-2.734h9.766v2.328l-5.906 8.047h6.125v2.734zm8.005-10.812q-1.125 0-1.782.734-.64.72-.734 2.032h5.016q-.016-1.313-.688-2.032-.672-.734-1.812-.734zm.515 11.047q-3.172 0-4.953-1.75-1.781-1.75-1.781-4.938 0-3.297 1.64-5.093 1.657-1.797 4.563-1.797 2.781 0 4.328 1.578 1.547 1.578 1.547 4.375v1.734h-8.453q.062 1.516.906 2.375.844.86 2.36.86 1.187 0 2.234-.25 1.062-.25 2.203-.782v2.766q-.937.469-2 .687-1.062.235-2.594.235zm12.399 0q-2.313 0-3.64-1.797-1.313-1.797-1.313-4.969 0-3.219 1.343-5.015 1.344-1.797 3.704-1.797 2.468 0 3.765 1.922h.125q-.281-1.47-.281-2.625v-4.188h3.594v18.234h-2.75l-.688-1.703h-.156q-1.219 1.938-3.703 1.938zm1.25-2.844q1.375 0 2-.797.64-.797.703-2.719v-.375q0-2.109-.656-3.015-.641-.922-2.11-.922-1.187 0-1.86 1.016-.655 1-.655 2.937 0 1.938.656 2.906.672.97 1.922.97z"/><path fill="#000" d="M141.403 156.82v7.125h-1.984v-17.14h4.703q3.14 0 4.64 1.218 1.516 1.203 1.516 3.625 0 3.406-3.437 4.594l4.64 7.703h-2.344l-4.156-7.125h-3.578zm0-1.719h2.734q2.11 0 3.094-.828.985-.844.985-2.516 0-1.703-1-2.453-1-.75-3.22-.75h-2.593v6.547zm26.523.11q0 4.25-2.312 6.5-2.297 2.234-6.61 2.234h-4.75v-17.14h5.25q4 0 6.204 2.218 2.218 2.219 2.218 6.187zm-2.109.078q0-3.36-1.687-5.047-1.672-1.703-4.985-1.703h-2.906v13.687h2.437q3.563 0 5.344-1.75 1.797-1.766 1.797-5.187zm7.918 8.656h-1.984v-17.14h9.547v1.78h-7.563v6.266h7.11v1.766h-7.11v7.328zm-68.719 24.104q0 2.266-1.64 3.531-1.641 1.266-4.453 1.266-3.047 0-4.688-.781v-1.922q1.047.437 2.281.703 1.25.25 2.469.25 2 0 3-.75 1.016-.766 1.016-2.11 0-.89-.36-1.453-.36-.578-1.203-1.047-.828-.484-2.547-1.093-2.39-.86-3.422-2.032-1.015-1.171-1.015-3.062 0-1.969 1.484-3.14 1.485-1.173 3.938-1.173 2.562 0 4.703.938l-.625 1.734q-2.125-.89-4.125-.89-1.578 0-2.469.687-.89.672-.89 1.875 0 .89.328 1.469.328.562 1.109 1.031.781.469 2.375 1.047 2.703.969 3.719 2.078 1.015 1.094 1.015 2.844zm14.36-7.578q0 2.594-1.782 4-1.765 1.406-5.078 1.406h-2.015v6.734h-1.985v-17.14h4.438q6.422 0 6.422 5zm-8.875 3.687h1.797q2.656 0 3.828-.843 1.187-.86 1.187-2.75 0-1.704-1.11-2.532-1.109-.828-3.468-.828h-2.234v6.953zm23.23 8.453l-2.125-5.453h-6.875l-2.11 5.453h-2.015l6.781-17.203h1.672l6.735 17.203h-2.063zm-2.75-7.25l-2-5.296q-.375-1.016-.797-2.485-.25 1.125-.734 2.485l-2.016 5.296h5.547zm9.156.125v7.125h-1.984v-17.14h4.703q3.14 0 4.64 1.219 1.516 1.203 1.516 3.625 0 3.406-3.437 4.593l4.64 7.703h-2.343l-4.156-7.125h-3.579zm0-1.718h2.735q2.11 0 3.094-.828.984-.844.984-2.516 0-1.703-1-2.453-1-.75-3.219-.75h-2.594v6.547zm27.727.25q0 3.297-1.328 5.484-1.328 2.172-3.735 2.938l4.079 4.25h-2.907l-3.328-3.86-.656.016q-3.781 0-5.844-2.313-2.047-2.312-2.047-6.53 0-4.188 2.063-6.485 2.062-2.313 5.86-2.313 3.687 0 5.765 2.344t2.078 6.469zm-13.656 0q0 3.484 1.484 5.281 1.484 1.797 4.297 1.797 2.86 0 4.312-1.781 1.454-1.797 1.454-5.297 0-3.453-1.454-5.235-1.453-1.797-4.28-1.797-2.845 0-4.329 1.797-1.484 1.797-1.484 5.235zm17.472 8.593v-17.14h1.985v15.328h7.562v1.812h-9.547zM47.524 214.486v7.125H45.54v-17.14h4.703q3.14 0 4.64 1.219 1.516 1.203 1.516 3.625 0 3.406-3.437 4.593l4.64 7.703h-2.344l-4.156-7.125h-3.578zm0-1.718h2.734q2.11 0 3.094-.828.985-.844.985-2.516 0-1.703-1-2.453-1-.75-3.22-.75h-2.593v6.547zm22.93 8.843H59.188v-1.671l4.516-4.547q2.062-2.078 2.719-2.969.656-.89.984-1.734.328-.844.328-1.813 0-1.375-.844-2.172-.828-.812-2.297-.812-1.062 0-2.03.36-.954.343-2.126 1.265l-1.031-1.313q2.375-1.969 5.156-1.969 2.422 0 3.781 1.235 1.375 1.234 1.375 3.312 0 1.641-.921 3.235-.907 1.593-3.407 4.031l-3.75 3.656v.094h8.813v1.812zm5.629-7.125v7.125h-1.985v-17.14h4.703q3.141 0 4.641 1.219 1.516 1.203 1.516 3.625 0 3.406-3.438 4.593l4.64 7.703h-2.343l-4.156-7.125h-3.578zm0-1.718h2.734q2.11 0 3.094-.828.984-.844.984-2.516 0-1.703-1-2.453-1-.75-3.219-.75h-2.593v6.547zm20.43 8.843L90.7 206.424h-.094q.172 1.797.172 4.281v10.906h-1.844v-17.14h3l5.422 14.14h.094l5.469-14.14h2.984v17.14h-2v-11.046q0-1.891.172-4.125h-.094l-5.86 15.171h-1.609zm14.09 0v-17.14h1.984v15.328h7.562v1.812h-9.547zm14.206-2.796l.172.28q-.312 1.173-.89 2.72-.563 1.562-1.188 2.89h-1.469q.328-1.219.703-3.015.375-1.797.532-2.875h2.14zm12.352-4.329v7.125h-1.985v-17.14h4.704q3.14 0 4.64 1.219 1.516 1.203 1.516 3.625 0 3.406-3.438 4.593l4.641 7.703h-2.344l-4.156-7.125h-3.578zm0-1.718h2.734q2.11 0 3.094-.828.984-.844.984-2.516 0-1.703-1-2.453-1-.75-3.218-.75h-2.594v6.547zm20.43 8.843l-5.813-15.187h-.094q.172 1.797.172 4.281v10.906h-1.844v-17.14h3l5.422 14.14h.094l5.469-14.14h2.984v17.14h-2v-11.046q0-1.891.172-4.125h-.094l-5.86 15.171h-1.608zm14.09 0v-17.14h1.984v15.328h7.562v1.812h-9.547zM57.508 246.049q0 2.266-1.64 3.531-1.64 1.266-4.453 1.266-3.047 0-4.688-.781v-1.922q1.047.437 2.281.703 1.25.25 2.47.25 2 0 3-.75 1.015-.766 1.015-2.11 0-.89-.36-1.453-.359-.578-1.203-1.047-.828-.484-2.547-1.093-2.39-.86-3.421-2.032-1.016-1.171-1.016-3.062 0-1.969 1.484-3.14 1.485-1.173 3.938-1.173 2.562 0 4.703.938l-.625 1.734q-2.125-.89-4.125-.89-1.578 0-2.469.687-.89.672-.89 1.875 0 .89.328 1.469.328.562 1.11 1.031.78.469 2.374 1.047 2.703.969 3.719 2.078 1.015 1.094 1.015 2.844zm16.5 4.562h-1.984v-8.062h-9.031v8.062h-1.985v-17.14h1.985v7.297h9.031v-7.297h1.984v17.14zm15.473 0l-2.125-5.453h-6.875l-2.11 5.453h-2.015l6.781-17.203h1.672l6.735 17.203H89.48zm-2.75-7.25l-2-5.296q-.375-1.016-.797-2.485-.25 1.125-.734 2.485l-2.016 5.296h5.547zm14.5-8.343q-2.812 0-4.453 1.875-1.64 1.875-1.64 5.156 0 3.36 1.578 5.203 1.578 1.828 4.5 1.828 1.796 0 4.093-.656v1.75q-1.781.672-4.406.672-3.781 0-5.844-2.297-2.047-2.297-2.047-6.531 0-2.64.985-4.625 1-2 2.86-3.078 1.874-1.079 4.405-1.079 2.688 0 4.704.985l-.844 1.703q-1.938-.906-3.89-.906zm7.813 15.593v-17.14h1.984v15.328h7.563v1.812h-9.547zm18.66-17.14l-6.375 17.14h-1.953l6.39-17.14h1.938zm12.281 12.578q0 2.266-1.64 3.531-1.641 1.266-4.454 1.266-3.047 0-4.687-.781v-1.922q1.047.437 2.281.703 1.25.25 2.469.25 2 0 3-.75 1.015-.766 1.015-2.11 0-.89-.359-1.453-.36-.578-1.203-1.047-.828-.484-2.547-1.093-2.39-.86-3.422-2.032-1.015-1.171-1.015-3.062 0-1.969 1.484-3.14 1.484-1.173 3.937-1.173 2.563 0 4.704.938l-.625 1.734q-2.125-.89-4.125-.89-1.579 0-2.47.687-.89.672-.89 1.875 0 .89.328 1.469.328.562 1.11 1.031.78.469 2.375 1.047 2.703.969 3.718 2.078 1.016 1.094 1.016 2.844zm12 4.562V242.3q0-1.563-.719-2.328-.718-.781-2.234-.781-2.031 0-2.969 1.109-.922 1.094-.922 3.594v6.718h-1.953v-18.234h1.953v5.516q0 1-.093 1.656h.109q.578-.922 1.64-1.453 1.063-.547 2.422-.547 2.344 0 3.516 1.125 1.188 1.125 1.188 3.562v8.375h-1.938zm15.777 0h-9.546v-17.14h9.546v1.781H160.2v5.516h7.11v1.75h-7.11v6.312h7.562v1.781zm6.598-6.578l-4.469-6.265h2.219l3.39 4.922 3.376-4.922h2.187l-4.469 6.265 4.704 6.578h-2.204l-3.593-5.203-3.641 5.203h-2.203l4.703-6.578zm-76.64 26.594h5.828v8.344q-1.36.422-2.766.64-1.406.235-3.266.235-3.89 0-6.062-2.313-2.156-2.312-2.156-6.484 0-2.672 1.062-4.688 1.078-2.015 3.094-3.062 2.015-1.063 4.719-1.063 2.75 0 5.109 1l-.766 1.766q-2.328-.984-4.468-.984-3.125 0-4.891 1.86-1.75 1.858-1.75 5.171 0 3.469 1.687 5.266 1.704 1.78 4.985 1.78 1.781 0 3.469-.405v-5.282h-3.829v-1.78zm11.597 8.984h-1.953v-12.843h1.953v12.843zm-2.11-16.328q0-.672.329-.968.328-.313.812-.313.47 0 .813.313.344.312.344.968 0 .657-.344.985-.344.312-.813.312-.484 0-.812-.312-.328-.328-.328-.985zm10.384 14.953q.515 0 .984-.078.484-.078.766-.156v1.484q-.313.157-.938.25-.61.11-1.094.11-3.734 0-3.734-3.922v-7.64h-1.844v-.938l1.844-.813.828-2.75h1.125v2.985h3.719v1.515h-3.719v7.547q0 1.172.547 1.797.547.61 1.516.61zm6.363-1.421l.172.28q-.313 1.173-.891 2.72-.562 1.562-1.187 2.89h-1.47q.329-1.219.704-3.015.375-1.797.531-2.875h2.14zm17.695-12.797q-2.812 0-4.453 1.875-1.64 1.875-1.64 5.156 0 3.36 1.577 5.203 1.579 1.828 4.5 1.828 1.797 0 4.094-.656v1.75q-1.781.672-4.406.672-3.781 0-5.844-2.297-2.047-2.297-2.047-6.531 0-2.64.985-4.625 1-2 2.86-3.078 1.874-1.079 4.405-1.079 2.688 0 4.703.985l-.843 1.703q-1.938-.906-3.89-.906zm22.766 15.593h-1.969l-3.453-11.468q-.25-.766-.563-1.922-.297-1.172-.312-1.406-.25 1.546-.813 3.39l-3.359 11.406h-1.969l-4.562-17.14h2.11l2.718 10.594q.562 2.218.812 4.03.313-2.155.938-4.202l3.078-10.422h2.11l3.218 10.515q.563 1.813.953 4.11.219-1.672.844-4.063l2.687-10.562h2.11l-4.578 17.14zm7.265 0v-17.14h1.985v15.328h7.562v1.812h-9.547z"/><path d="M375.1 206.952H207.41"/><path stroke="#c2c2c2" stroke-linejoin="round" stroke-linecap="butt" d="M375.1 206.952H207.41"/><path fill="#0d5ddf" d="M203.484 206.264c0-8.69 6.595-15.737 14.73-15.737 3.908 0 7.655 1.658 10.417 4.61 2.763 2.951 4.315 6.954 4.315 11.127 0 8.692-6.596 15.737-14.731 15.737-8.136 0-14.731-7.045-14.731-15.737z" fill-rule="evenodd"/><path d="M199.858 180.938h36.716v49.663h-36.716z"/></g></svg>