<svg xmlns="http://www.w3.org/2000/svg" version="1.0" width="460" height="460"><path d="M62.155 4.3v268.766l280.437-126.593zm336.922 182.095L118.639 328.566 399.077 455.16z" fill="#001c3d" fill-rule="evenodd"/><path d="M381.46 368.49h-26.955l-6.215-40.305a201 201 0 01-1.192-9.487c-.362-3.48-.687-7.28-.976-11.397-.674 3.947-2 8.871-3.975 14.772a126.845 126.845 0 00-.939 2.738l-14.381 43.68h-19.223l-14.38-43.68a307.73 307.73 0 01-.868-2.738c-2.023-5.9-3.348-10.803-3.975-14.709a362.573 362.573 0 01-1.011 10.474c-.386 3.46-.843 6.909-1.373 10.347l-6.215 40.306h-26.81l16.331-93.218h28.545l15.971 48.073c.096.34.29.892.578 1.656 1.494 4.287 2.433 7.959 2.819 11.015.192-1.655.554-3.491 1.084-5.508.53-2.016 1.252-4.446 2.168-7.29l16.115-47.946H365.2z" style="line-height:100%;-inkscape-font-specification:'Futura Md BT Bold';text-align:start" font-weight="700" font-size="50.441" font-family="Futura Md BT" fill="#fff"/><path d="M103.74 95.97h25.193v45.336c0 6.665.169 11.45.506 14.358.338 2.908.907 5.338 1.71 7.29.97 2.378 2.658 4.193 5.063 5.445 2.405 1.252 5.338 1.878 8.799 1.878 3.46 0 6.382-.626 8.766-1.878 2.385-1.252 4.083-3.067 5.096-5.444.802-1.953 1.371-4.383 1.709-7.29.338-2.908.506-7.694.506-14.359V95.971h25.13v49.283c0 10.23-.612 17.775-1.836 22.636-1.224 4.86-3.291 9.01-6.203 12.448-3.165 3.778-7.512 6.611-13.04 8.5-5.528 1.89-12.237 2.834-20.128 2.834-7.934 0-14.654-.945-20.16-2.834-5.508-1.889-9.865-4.722-13.072-8.5-2.87-3.439-4.927-7.588-6.172-12.448-1.244-4.86-1.867-12.406-1.867-22.636v-9.679z" style="line-height:100%;-inkscape-font-specification:'Futura Md BT Bold';text-align:start" font-weight="700" font-size="47.207" font-family="Futura Md BT" fill="#fff"/></svg>